<?xml version="1.0" encoding="UTF-8"?>
<svg id="Layer_1" xmlns="http://www.w3.org/2000/svg" xmlns:xlink="http://www.w3.org/1999/xlink" version="1.1" viewBox="0 0 100 70">
  <!-- Generator: Adobe Illustrator 29.3.1, SVG Export Plug-In . SVG Version: 2.1.0 Build 151)  -->
  <defs>
    <style>
      .st0 {
        fill: none;
      }

      .st1 {
        fill: #e2e2e2;
      }

      .st2 {
        fill: #191818;
      }

      .st3 {
        fill: #919191;
      }

      .st4 {
        fill: #4f4f4f;
      }

      .st5 {
        clip-path: url(#clippath-1);
      }

      .st6 {
        clip-path: url(#clippath);
      }

      .st7 {
        fill: #898989;
      }
    </style>
    <clipPath id="clippath">
      <rect class="st0" x="30.03" y="3.47" width="39.62" height="62.41"/>
    </clipPath>
    <clipPath id="clippath-1">
      <rect class="st0" x="30.67" y="3.47" width="38.67" height="61.86"/>
    </clipPath>
  </defs>
  <g class="st6">
    <path class="st1" d="M61.69,6.49l-5.92-2.69-5.43.04-5.65-.34-7.13,2.51-4.95,5.42-2.58,7.66,2.85,8.52,8.63,4.28,1.1-.51-1.1,2.4-2.04,8.04.78,4.18-.56.33-2.98,7.35,2.26,9.52,9.3,2.67,8.61-2.98,2.81-8.93-2.91-7.93-1.48-.75.43-2.09.49-3.11,1.37-1.66,3.03-2.84,3.79-3.82,3-4.96,2.23-6.93-2.17-8.92-5.79-4.44Z"/>
  </g>
  <path class="st7" d="M57.83,51.32c-.04-.05-.08-.09-.15-.11v.11h.15Z"/>
  <path class="st7" d="M57.31,50.06s-.07-.2-.13-.13c-.05.07.06.2.13.13Z"/>
  <path class="st7" d="M57.18,50.44s-.07-.2-.13-.13c-.05.07.06.2.13.13Z"/>
  <path class="st7" d="M56.93,49.04c-.16.02-.09.15,0,.26.08,0,.13-.04.13-.13,0-.08-.04-.13-.13-.13Z"/>
  <path class="st7" d="M56.93,49.55s.05.2.13.13-.07-.2-.13-.13Z"/>
  <path class="st7" d="M57.05,50.7c-.13,0-.16-.11-.25-.13-.09-.02-.02.44.25.39v-.26Z"/>
  <path class="st7" d="M56.67,49.55s.06.2.13.13-.07-.2-.13-.13Z"/>
  <path class="st7" d="M56.3,49.04s-.07-.2-.13-.13c-.05.07.06.2.13.13Z"/>
  <path class="st7" d="M56.17,49.3s-.07-.2-.13-.13.05.2.13.13Z"/>
  <path class="st7" d="M54.91,49.93c-.02.31.2.4.38.51-.06-.23-.06-.55-.38-.51Z"/>
  <path class="st7" d="M54.78,50.32s.06.2.13.13-.07-.2-.13-.13Z"/>
  <path class="st7" d="M54.78,50.7s.06.2.13.13-.07-.2-.13-.13Z"/>
  <path class="st7" d="M54.65,51.08s.06.2.13.13c.07-.07-.07-.2-.13-.13Z"/>
  <path class="st7" d="M54.4,50.44c.02.09,0,.26.13.26s0-.26-.13-.26Z"/>
  <path class="st7" d="M53.39,49.55s.05.2.13.13-.06-.2-.13-.13Z"/>
  <path class="st7" d="M52.76,50.44s.06.2.13.13c.07-.07-.06-.2-.13-.13Z"/>
  <path class="st7" d="M52.13,51.08c-.07,0-.15.11,0,.13.15.02.15-.11,0-.13Z"/>
  <path class="st7" d="M51.74,50.82s.07.2.13.13c.06-.07-.05-.2-.13-.13Z"/>
  <path class="st7" d="M51.11,49.68c.27.04.04.57.38.51.07-.29-.2-.88-.38-.51Z"/>
  <path class="st7" d="M50.99,50.7c.27-.66-.47-.78,0,0Z"/>
  <path class="st7" d="M50.99,49.3c-.17-.04-.23-.18-.51-.13-.27.06.04.47.25.51-.04-.26.18-.26.26-.38Z"/>
  <path class="st7" d="M50.61,50.82c0,.2.07.36.21.49h.07c.17-.2.09-.55-.29-.49Z"/>
  <path class="st7" d="M50.35,49.81s.07.2.13.13c.05-.07-.06-.2-.13-.13Z"/>
  <path class="st7" d="M49.85,50.19c.15,0,.33-.05.13-.13-.2-.07-.31.05-.13.13Z"/>
  <path class="st7" d="M49.72,50.82s.07.2.13.13c.06-.07-.05-.2-.13-.13Z"/>
  <path class="st7" d="M47.21,49.04s.06.18.13.13c.07-.05-.07-.2-.13-.13Z"/>
  <path class="st7" d="M47.09,49.55s.05.2.13.13-.07-.2-.13-.13Z"/>
  <path class="st7" d="M45.95,51.21s0,.07.02.11h.11c0-.06-.07-.17-.13-.11Z"/>
  <path class="st7" d="M45.7,49.04s.06.18.13.13c.07-.05-.07-.2-.13-.13Z"/>
  <path class="st7" d="M45.7,50.7c-.43-.31.31.42,0,0Z"/>
  <path class="st7" d="M45.57,49.68s.05.2.13.13-.07-.2-.13-.13Z"/>
  <path class="st7" d="M45.32,48.92s.06.2.13.13c.07-.07-.07-.2-.13-.13Z"/>
  <path class="st7" d="M45.32,50.82c.02.15-.02.36.13.39.14.02.02-.36-.13-.39Z"/>
  <path class="st7" d="M44.18,49.3s.05.2.13.13-.07-.2-.13-.13Z"/>
  <path class="st7" d="M44.18,49.93s.05.2.13.13-.07-.2-.13-.13Z"/>
  <path class="st7" d="M44.18,50.32c-.18.16-.22.76.13.76-.25-.33.13-.58-.13-.76Z"/>
  <path class="st7" d="M43.93,50.06c.02.09,0,.26.13.26s0-.26-.13-.26Z"/>
  <path class="st7" d="M43.05,49.55s.05.2.13.13-.07-.2-.13-.13Z"/>
  <path class="st7" d="M42.07,48.84s.05-.06.09-.06c.07-.02.15-.02.13-.13-.02-.11-.23-.18-.51-.13.03.1.06.2.07.31.04.15.07.27.18.32,0-.11.01-.22.04-.32Z"/>
  <path class="st7" d="M42.04,49.3c.04.09,0,.26.13.26s0-.26-.13-.26Z"/>
  <path class="st7" d="M41.78,51.08c-.07,0-.15.11,0,.13.15.02.15-.11,0-.13Z"/>
  <path class="st7" d="M41.78,50.7s-.05-.2-.13-.13.05.2.13.13Z"/>
  <path class="st7" d="M41.28,51.21c.34.09.26-.26.38-.39-.28-.01-.41.11-.38.39Z"/>
  <path class="st7" d="M40.77,50.7c-.04.18-.2.22-.26.38.27.11.56-.33.26-.38Z"/>
  <path class="st7" d="M40.65,49.93s.05.2.13.13-.05-.2-.13-.13Z"/>
  <path class="st7" d="M40.52,51.21s.02.07.02.11h.09c-.02-.06-.04-.11-.11-.11Z"/>
  <path class="st7" d="M32.57,17.92s.02.15.09.15h.04c.01-.05,0-.09-.04-.13-.04-.02-.07-.04-.09-.02Z"/>
  <path class="st7" d="M32.45,14.6c.27-.31.06-.34-.05-.27l-.06.16s.07.08.11.11Z"/>
  <path class="st7" d="M32.2,16.01c-.11-.02-.15-.09-.13-.26h-.16l-.13.38c.18,0,.38.02.42-.13Z"/>
  <path class="st7" d="M31.82,19.08c-.38.42.47.39,0,0Z"/>
  <path class="st7" d="M31.82,16.9c-.13-.02-.15-.15-.22-.23l-.1.36c.13.06.29.04.32-.13Z"/>
  <path class="st7" d="M31.69,20.1s.05.18.13.13c.07-.05-.07-.2-.13-.13Z"/>
  <path class="st7" d="M31.44,19.97s.06.18.13.13c.07-.06-.05-.2-.13-.13Z"/>
  <path class="st7" d="M31.44,20.61c0,.07-.05.13-.07.18v.04s.02.02.06.04c.08.01.13-.03.14-.11,0-.09-.04-.13-.12-.14Z"/>
  <path class="st7" d="M31.56,21.11s-.05-.2-.13-.13v.09c.06.04.09.07.13.04Z"/>
  <path class="st7" d="M31.31,17.66h-.06v.11s.04.09.07.13c.05-.03.08-.07.07-.13s-.04-.09-.09-.11Z"/>
  <path class="st7" d="M31.31,18.7s.05.18.13.13c.07-.05-.05-.2-.13-.13Z"/>
  <path class="st7" d="M31.06,18.44l-.07.04-.1.33c.13.15.51.05.18-.36Z"/>
  <path class="st7" d="M31.06,19.08s.06.18.13.13c.07-.06-.06-.2-.13-.13Z"/>
  <path class="st7" d="M47.94,51.32h.25c.13-.18.36-.29.78-.24-.38-.36-.74-.02-1.03.24Z"/>
  <path class="st7" d="M57.02,51.32h.09s-.03-.08-.06-.11c-.02.04-.02.07-.04.11Z"/>
  <path class="st7" d="M56.42,47.39c-.6.17-.83.69-1.52.77-.02.23.04.51-.02.69-.05.19-.17.26-.36.2.06-.06.1-.13.15-.2.1-.22.05-.47-.4-.44-.04.16-.01.3.09.44.05.1.06.21.04.32.54-.2.41.93.76.51-.18-.09-.23-.27-.25-.51-.02-.23.18-.23.2-.32-.01-.11-.04-.21-.07-.31.43.09.2-.47.51-.51s.69-.36.99-.56l-.17-.49-.07.04c-.01.14.03.27.13.38Z"/>
  <path class="st7" d="M56.3,50.32s-.23.13-.13.25c.11.13.4-.74.13-.25Z"/>
  <path class="st7" d="M55.29,50.82c.01.2.09.36.23.49h.1c-.02-.23-.14-.4-.34-.49Z"/>
  <path class="st7" d="M54.53,49.68c.13.15.09.04,0-.13-.09-.17-.13-.02,0,.13Z"/>
  <path class="st7" d="M52.51,50.19c-.38-.34.34.38,0,0Z"/>
  <path class="st7" d="M50.35,50.19c-.04.26-.47.13-.51.38.34.11.78-.31.51-.38Z"/>
  <path class="st7" d="M49.72,49.42s-.22.13-.13.26c.09.13.41-.74.13-.26Z"/>
  <path class="st7" d="M49.09,50.7c-.22.42.43.8.13.51s.58-.02.38-.51h-.51Z"/>
  <path class="st7" d="M43.3,49.81c-.32.18.31.74.38.51-.27-.04-.04-.57-.38-.51Z"/>
  <path class="st7" d="M42.04,50.82c.04-.07.2.36,0,.39.56.05.2-.68,0-.39Z"/>
  <path class="st7" d="M32.7,13.71c0,.05-.01.1-.04.15l-.13.07-.07.2.2-.07c.13-.13.18-.33.04-.34Z"/>
  <path class="st7" d="M31.44,17.28h-.04c.09.11.22.22.04,0Z"/>
  <path class="st7" d="M31.19,19.59c-.08-.06-.16-.1-.26-.11l.13.4c.06-.02.11-.09.13-.29Z"/>
  <path class="st7" d="M68.55,18.42v-.13s-.02.09,0,.13Z"/>
  <path class="st7" d="M68.53,18.82s-.07-.2-.13-.13c-.05.07.06.18.13.13Z"/>
  <path class="st7" d="M68.28,17.66s.05.2.13.15v-.07c-.04-.06-.09-.11-.13-.07Z"/>
  <path class="st7" d="M68.16,19.84c-.02-.15.18-.2,0-.26-.08,0-.13.04-.13.13,0,.09.05.13.13.13Z"/>
  <path class="st7" d="M67.99,16.06l-.03-.09c-.13-.09-.06.02.03.09Z"/>
  <path class="st7" d="M67.02,25.65l.15-.44h-.15c-.02.15-.02.29,0,.44Z"/>
  <path class="st7" d="M67.65,15.75s-.07-.18-.13-.13c-.05.05.06.2.13.13Z"/>
  <path class="st7" d="M66.77,15.63s-.07-.18-.13-.13c-.06.06.05.2.13.13Z"/>
  <path class="st7" d="M66.39,12.44s-.05-.2-.13-.13.05.2.13.13Z"/>
  <path class="st7" d="M66.26,12.06s-.06-.2-.13-.13c-.07.07.05.2.13.13Z"/>
  <path class="st7" d="M66.14,26.34s.05.2.13.13-.06-.2-.13-.13Z"/>
  <path class="st7" d="M65.76,26.85s.05.2.13.13-.05-.18-.13-.13Z"/>
  <path class="st7" d="M65.38,27.1s.05.2.13.13-.05-.18-.13-.13Z"/>
  <path class="st7" d="M65.25,23.92c.04.09,0,.26.13.26s0-.26-.13-.26Z"/>
  <path class="st7" d="M65.12,12.31c-.07,0-.14.11,0,.13.15.02.15-.11,0-.13Z"/>
  <path class="st7" d="M65.12,16.13s.06.2.13.13c.07-.07-.06-.18-.13-.13Z"/>
  <path class="st7" d="M64.99,17.92s.06.2.13.15c.07-.06-.05-.2-.13-.15Z"/>
  <path class="st7" d="M64.99,25.32s.06.2.13.13c.07-.07-.05-.2-.13-.13Z"/>
  <path class="st7" d="M64.99,25.95s.06.2.13.13c.07-.07-.05-.18-.13-.13Z"/>
  <path class="st7" d="M64.61,17.15c.17.02.11.23.26.26.15.02.15-.2,0-.39-.15-.18-.26.02-.26.13Z"/>
  <path class="st7" d="M64.74,19.33c.04.09,0,.23.13.26.13.02,0-.26-.13-.26Z"/>
  <path class="st7" d="M64.61,15.63c-.07,0-.14.1,0,.13.15.02.15-.09,0-.13Z"/>
  <path class="st7" d="M64.36,17.92c.04-.15.15-.07.25,0,.2-.53-.78-.13-.25,0Z"/>
  <path class="st7" d="M64.24,17.28c-.07,0-.15.11,0,.13.14.02.14-.09,0-.13Z"/>
  <path class="st7" d="M63.86,16.9c.04.11,0,.26.13.26s0-.23-.13-.26Z"/>
  <path class="st7" d="M63.73,12.18c-.02-.09,0-.26-.13-.26s0,.26.13.26Z"/>
  <path class="st7" d="M62.85,8.88c.13-.09.24-.19.34-.31l-.23-.2c-.13.22-.36.42-.11.51Z"/>
  <path class="st7" d="M63.48,19.46c.04.09,0,.23.13.25.13.02,0-.25-.13-.25Z"/>
  <path class="st7" d="M63.22,13.2s.07.2.13.13c.05-.07-.06-.18-.13-.13Z"/>
  <path class="st7" d="M63.22,17.81s.07.18.13.11c.05-.07-.06-.18-.13-.11Z"/>
  <path class="st7" d="M62.85,12.18s-.06-.2-.13-.13c-.07.07.07.2.13.13Z"/>
  <path class="st7" d="M62.47,11.68s.07.2.13.13c.06-.07-.05-.2-.13-.13Z"/>
  <path class="st7" d="M62.47,8.62s-.05-.2-.13-.13c-.07.07.07.18.13.13Z"/>
  <path class="st7" d="M62.47,12.06s-.05-.2-.13-.13c-.07.07.07.2.13.13Z"/>
  <path class="st7" d="M62.21,28.51s.07.2.13.13c.05-.07-.06-.18-.13-.13Z"/>
  <path class="st7" d="M62.21,9.38c-.02-.11,0-.25-.13-.25s0,.25.13.25Z"/>
  <path class="st7" d="M62.09,11.55s-.05-.2-.13-.13.07.2.13.13Z"/>
  <path class="st7" d="M61.84,32.47s.07.18.13.13c.05-.05-.06-.2-.13-.13Z"/>
  <path class="st7" d="M61.84,8.23s-.06-.2-.13-.13c-.07.07.07.18.13.13Z"/>
  <path class="st7" d="M61.46,18.31s.07.18.13.13c.06-.06-.05-.2-.13-.13Z"/>
  <path class="st7" d="M61.2,10.02s-.05-.2-.13-.13c-.07.07.07.2.13.13Z"/>
  <path class="st7" d="M61.2,14.98s-.05-.18-.13-.13c-.07.05.07.2.13.13Z"/>
  <path class="st7" d="M60.83,14.35c-.13,0-.31.07-.13.13.18.06.33-.05.13-.13Z"/>
  <path class="st7" d="M60.19,15.63c.02-.17.16-.17.13-.39-.3-.2-.36.44-.13.39Z"/>
  <path class="st7" d="M60.19,32.85s.07.18.13.13c.06-.06-.05-.2-.13-.13Z"/>
  <path class="st7" d="M60.07,32.59s.07.18.13.13c.06-.06-.05-.2-.13-.13Z"/>
  <path class="st7" d="M59.81,32.85s.07.18.13.13c.05-.06-.06-.2-.13-.13Z"/>
  <path class="st7" d="M59.69,18.17c-.02-.09,0-.24-.13-.26-.13-.02.02.26.13.26Z"/>
  <path class="st7" d="M59.31,6.33c-.41-.31.31.42,0,0Z"/>
  <path class="st7" d="M59.18,13.46s.07.2.13.13c.06-.07-.05-.18-.13-.13Z"/>
  <path class="st7" d="M59.18,32.59s.07.18.13.13c.06-.06-.05-.2-.13-.13Z"/>
  <path class="st7" d="M59.07,15.49c.06,0,.13-.09,0-.13-.13-.04-.14.11,0,.13Z"/>
  <path class="st7" d="M58.95,6.45c-.43-.31.29.42,0,0Z"/>
  <path class="st7" d="M58.82,13.58c.15-.02.29-.04.25-.26s-.36-.02-.38.13c-.02.15.14.02.13.13Z"/>
  <path class="st7" d="M58.82,9.89s.05.2.13.13-.07-.2-.13-.13Z"/>
  <path class="st7" d="M58.7,32.47s.05.18.13.13c.07-.05-.07-.2-.13-.13Z"/>
  <path class="st7" d="M58.57,6.71s-.07-.2-.13-.13c-.05.07.05.18.13.13Z"/>
  <path class="st7" d="M58.44,21.37c.02.09,0,.26.13.26s-.02-.26-.13-.26Z"/>
  <path class="st7" d="M58.44,31.83c.02.09,0,.23.13.26.13.02-.02-.26-.13-.26Z"/>
  <path class="st7" d="M58.06,30.8c-.02.09-.02.16-.13.13v.26c.31.2.36-.42.13-.38Z"/>
  <path class="st7" d="M57.94,33.61c.13,0,.31-.07.13-.13-.18-.06-.32.05-.13.13Z"/>
  <path class="st7" d="M58.06,7.47s-.07-.2-.13-.13c-.05.07.05.18.13.13Z"/>
  <path class="st7" d="M58.06,20.22c.04-.29-.04-.49-.25-.51-.22-.02-.23.11-.26.26.34-.09.26.26.51.26Z"/>
  <path class="st7" d="M57.56,34.25s.06.18.13.13c.07-.06-.07-.2-.13-.13Z"/>
  <path class="st7" d="M57.56,37.05s.06.2.13.13c.07-.07-.07-.2-.13-.13Z"/>
  <path class="st7" d="M56.8,20.61c.25,0,.16.34.51.25.34-.09-.47-.53-.51-.25Z"/>
  <path class="st7" d="M57.18,19.59s-.07-.2-.13-.13c-.05.07.06.18.13.13Z"/>
  <path class="st7" d="M57.18,31.32s-.07-.2-.13-.15c-.05.05.06.2.13.15Z"/>
  <path class="st7" d="M56.93,30.92s.05.2.13.15-.07-.2-.13-.15Z"/>
  <path class="st7" d="M57.05,32.34s-.07-.2-.13-.13.05.18.13.13Z"/>
  <path class="st7" d="M57.05,32.59s-.07-.2-.13-.13.05.18.13.13Z"/>
  <path class="st7" d="M56.93,17.02s-.07-.18-.13-.13c-.06.05.05.2.13.13Z"/>
  <path class="st7" d="M56.8,8.88s-.07-.2-.13-.13c-.05.07.06.18.13.13Z"/>
  <path class="st7" d="M56.67,19.08c-.07,0-.14.09,0,.13.15.04.15-.11,0-.13Z"/>
  <path class="st7" d="M56.67,20.1s.06.18.13.13c.07-.05-.07-.2-.13-.13Z"/>
  <path class="st7" d="M56.67,33.61s.06.18.13.13c.07-.05-.07-.2-.13-.13Z"/>
  <path class="st7" d="M56.67,17.15s-.07-.18-.13-.13c-.05.06.06.2.13.13Z"/>
  <path class="st7" d="M56.3,32.98c-.01.14-.05.27-.13.38.31.02.31-.29.51-.38-.1-.04-.14-.11-.13-.26.02-.15-.65-.17-.63.13.02.29.36-.04.38.13Z"/>
  <path class="st7" d="M56.55,47.64s.04.16.11.13l-.05-.15-.06.02Z"/>
  <path class="st7" d="M56.55,31.45c-.47-.09.09-.43-.38-.53-.13.49.2,1.07.38.53Z"/>
  <path class="st7" d="M56.55,32.09s-.07-.2-.13-.13c-.06.07.05.18.13.13Z"/>
  <path class="st7" d="M56.3,35.65s.05.18.13.13c.07-.06-.07-.2-.13-.13Z"/>
  <path class="st7" d="M56.3,36.29s.05.2.13.13-.07-.2-.13-.13Z"/>
  <path class="st7" d="M56.17,37.44c-.02.07-.02.14-.13.13v.26c.31.2.36-.44.13-.38Z"/>
  <path class="st7" d="M56.04,17.53c.07,0,.15-.09,0-.13-.15-.04-.15.11,0,.13Z"/>
  <path class="st7" d="M56.04,23.16s-.07-.2-.13-.13c-.06.07.05.2.13.13Z"/>
  <path class="st7" d="M55.66,28.51c.21.04.34-.05.38-.26-.19-.02-.32.06-.38.26Z"/>
  <path class="st7" d="M56.04,30.54s-.07-.18-.13-.13c-.06.06.05.2.13.13Z"/>
  <path class="st7" d="M55.79,30.8s.05.2.13.13-.07-.18-.13-.13Z"/>
  <path class="st7" d="M55.92,32.34c-.04-.11,0-.26-.13-.26s0,.23.13.26Z"/>
  <path class="st7" d="M55.79,5.56s-.07-.2-.13-.13c-.05.07.06.18.13.13Z"/>
  <path class="st7" d="M55.66,6.2c.34-.62-.41-.31,0,0Z"/>
  <path class="st7" d="M55.66,34.25s.06.18.13.13c.07-.06-.07-.2-.13-.13Z"/>
  <path class="st7" d="M55.79,36.8c-.31-.65-.33.44,0,0Z"/>
  <path class="st7" d="M55.54,37.82c.13,0,.32-.06.13-.13s-.32.06-.13.13Z"/>
  <path class="st7" d="M55.54,11.42s.05.2.13.13-.07-.2-.13-.13Z"/>
  <path class="st7" d="M55.66,33.36s-.07-.2-.13-.13.05.18.13.13Z"/>
  <path class="st7" d="M55.66,46.88c-.04-.11,0-.26-.13-.26s0,.26.13.26Z"/>
  <path class="st7" d="M55.54,7.22s-.07-.2-.13-.13c-.06.07.05.18.13.13Z"/>
  <path class="st7" d="M55.54,9s-.07-.2-.13-.13c-.06.07.05.18.13.13Z"/>
  <path class="st7" d="M55.41,34.38s.05.18.13.13c.07-.05-.07-.2-.13-.13Z"/>
  <path class="st7" d="M55.41,39.47s.05.2.13.13-.07-.18-.13-.13Z"/>
  <path class="st7" d="M55.41,28.76s-.07-.18-.13-.13c-.06.05.05.2.13.13Z"/>
  <path class="st7" d="M55.29,13.58s-.13.02-.13,0c0-.02-.27-.11-.25-.13.02-.02.45.58.38.13Z"/>
  <path class="st7" d="M55.16,28.25s.06.2.13.13c.07-.07-.07-.18-.13-.13Z"/>
  <path class="st7" d="M54.91,37.31c.36.02.48-.66.13-.64-.13.19-.17.41-.13.64Z"/>
  <path class="st7" d="M55.29,37.94c.09-.49-.61-.49-.51,0,.26.22.17-.02.51,0Z"/>
  <path class="st7" d="M55.16,39.73s.06.2.13.13c.07-.07-.07-.18-.13-.13Z"/>
  <path class="st7" d="M55.16,28.89s-.07-.18-.13-.13c-.05.06.05.2.13.13Z"/>
  <path class="st7" d="M55.03,5.56s-.05-.2-.13-.13c-.07.07.05.18.13.13Z"/>
  <path class="st7" d="M54.78,41.64c.02.11,0,.26.13.26s0-.23-.13-.26Z"/>
  <path class="st7" d="M54.65,38.33c.08,0,.13-.04.13-.13,0-.08-.04-.13-.13-.13-.16.02-.07.15,0,.26Z"/>
  <path class="st7" d="M54.65,39.85s.06.2.13.13c.07-.07-.07-.18-.13-.13Z"/>
  <path class="st7" d="M54.65,13.71c-.02-.15.02-.36-.13-.39-.42.47-.51-.07-1.14,0-.17.28.05.39-.13.77.72-.13.74-.2,1.39-.38Z"/>
  <path class="st7" d="M54.53,31.58s.05.18.13.13c.07-.05-.05-.2-.13-.13Z"/>
  <path class="st7" d="M54.4,48.02s.05.18.13.13c.07-.06-.05-.2-.13-.13Z"/>
  <path class="st7" d="M54.4,5.69s-.06-.2-.13-.13c-.07.07.06.18.13.13Z"/>
  <path class="st7" d="M54.27,44.33c.02.09,0,.24.13.26.13.02,0-.26-.13-.26Z"/>
  <path class="st7" d="M54.15,25.32c-.07,0-.15.11,0,.13.15.02.15-.11,0-.13Z"/>
  <path class="st7" d="M54.02,25.95h.25v-.25h-.25v.25Z"/>
  <path class="st7" d="M54.27,29.52s-.05-.18-.13-.13c-.07.05.06.2.13.13Z"/>
  <path class="st7" d="M54.15,4.8s-.05-.2-.13-.15c-.07.06.05.2.13.15Z"/>
  <path class="st7" d="M54.02,5.05s-.05-.2-.13-.15c-.07.06.05.2.13.15Z"/>
  <path class="st7" d="M54.02,44.46s-.05-.2-.13-.13.05.18.13.13Z"/>
  <path class="st7" d="M53.77,14.35c-.07,0-.14.11,0,.13.15.02.15-.09,0-.13Z"/>
  <path class="st7" d="M53.9,36.67s-.06-.2-.13-.13c-.07.07.06.2.13.13Z"/>
  <path class="st7" d="M53.77,29.01s-.05-.18-.13-.13c-.07.05.06.2.13.13Z"/>
  <path class="st7" d="M53.64,26.21c-.04-.09,0-.26-.13-.26s0,.26.13.26Z"/>
  <path class="st7" d="M53.64,40.49s-.05-.18-.13-.13c-.07.05.05.2.13.13Z"/>
  <path class="st7" d="M53.39,23.16s.05.2.13.13-.06-.2-.13-.13Z"/>
  <path class="st7" d="M53.26,40.36s.06.2.13.13c.07-.07-.06-.18-.13-.13Z"/>
  <path class="st7" d="M53.26,40.74c-.13,0-.32.07-.13.13.2.05.32-.06.13-.13Z"/>
  <path class="st7" d="M53.39,46.37s-.06-.2-.13-.13.06.18.13.13Z"/>
  <path class="st7" d="M53.26,30.29c-.04-.09,0-.24-.13-.26-.13-.02,0,.26.13.26Z"/>
  <path class="st7" d="M53.01,23.03c-.26.67.45.4,0,0Z"/>
  <path class="st7" d="M53.01,48.41s.05.18.13.13c.07-.05-.05-.2-.13-.13Z"/>
  <path class="st7" d="M53.01,16.64s-.06-.18-.13-.13c-.07.05.05.2.13.13Z"/>
  <path class="st7" d="M52.89,37.31c.03.09,0,.26.13.26s0-.26-.13-.26Z"/>
  <path class="st7" d="M52.89,15.88s-.06-.18-.13-.13c-.07.05.06.2.13.13Z"/>
  <path class="st7" d="M52.89,25.45s-.06-.2-.13-.13.06.2.13.13Z"/>
  <path class="st7" d="M52.89,25.95s-.06-.2-.13-.13.06.2.13.13Z"/>
  <path class="st7" d="M52.76,47.77c.03.18-.02.35-.13.51.36.2.34-.54.13-.51Z"/>
  <path class="st7" d="M52.76,46.49s-.05-.2-.13-.13.05.18.13.13Z"/>
  <path class="st7" d="M52.13,18.17s.05.2.13.14c.07-.05-.05-.2-.13-.14Z"/>
  <path class="st7" d="M52.13,20.1c.02.15-.02.36.13.38.15.02.02-.36-.13-.38Z"/>
  <path class="st7" d="M52.13,41.77s.05.2.13.13-.05-.18-.13-.13Z"/>
  <path class="st7" d="M52.13,45.98s.05.18.13.13c.07-.06-.05-.2-.13-.13Z"/>
  <path class="st7" d="M52.13,15.37s-.05-.18-.13-.13c-.07.06.07.2.13.13Z"/>
  <path class="st7" d="M52.13,20.86s-.05-.2-.13-.13.07.18.13.13Z"/>
  <path class="st7" d="M52.13,37.05s-.05-.2-.13-.13.07.2.13.13Z"/>
  <path class="st7" d="M51.74,7.34s-.05-.2-.13-.13c-.07.07.07.18.13.13Z"/>
  <path class="st7" d="M51.74,7.85s-.05-.2-.13-.13.07.18.13.13Z"/>
  <path class="st7" d="M51.62,16.77c.07,0,.15-.09,0-.13-.15-.04-.15.11,0,.13Z"/>
  <path class="st7" d="M51.74,17.02s-.05-.18-.13-.13.07.2.13.13Z"/>
  <path class="st7" d="M51.74,17.81s-.05-.2-.13-.15c-.07.05.07.2.13.15Z"/>
  <path class="st7" d="M51.62,43.55c-.21-.01-.39.07-.51.26.2.22.56.15.51-.26Z"/>
  <path class="st7" d="M51.49,48.15c-.07,0-.15.09,0,.13.14.04.14-.11,0-.13Z"/>
  <path class="st7" d="M50.35,13.46c.47,0,.99.07,1.14-.26-.6.23-.78-.38-1.14.26Z"/>
  <path class="st7" d="M51.36,30.54c-.02-.13.18-.18,0-.26-.18-.07-.16.23,0,.26Z"/>
  <path class="st7" d="M51.36,31.18c0,.09-.02.16-.13.15v.26c.31.18.38-.44.13-.4Z"/>
  <path class="st7" d="M51.49,35.65s-.06-.2-.13-.13c-.07.07.07.18.13.13Z"/>
  <path class="st7" d="M51.24,6.71c-.15.02-.07.13,0,.26.08,0,.13-.04.13-.13,0-.08-.04-.13-.13-.13Z"/>
  <path class="st7" d="M51.24,10.02s.07.2.13.13c.06-.07-.05-.2-.13-.13Z"/>
  <path class="st7" d="M51.24,40.49s.07.2.13.13c.06-.07-.05-.18-.13-.13Z"/>
  <path class="st7" d="M51.24,43.29c.07,0,.15-.09,0-.13s-.15.11,0,.13Z"/>
  <path class="st7" d="M51.11,5.31s-.05-.2-.13-.13c-.07.07.07.18.13.13Z"/>
  <path class="st7" d="M51.11,6.45s-.05-.2-.13-.13c-.07.07.07.18.13.13Z"/>
  <path class="st7" d="M51.11,10.15s-.05-.2-.13-.13.07.2.13.13Z"/>
  <path class="st7" d="M50.99,40.49c-.07,0-.15.11,0,.13.14.02.14-.09,0-.13Z"/>
  <path class="st7" d="M50.99,10.66c-.02-.11,0-.26-.13-.26s0,.26.13.26Z"/>
  <path class="st7" d="M50.99,43.42c-.49.36-.91-.58-1.27,0,.4.16.9.2,1.14.51.04-.17.18-.24.13-.51Z"/>
  <path class="st7" d="M50.86,48.53s.07.18.13.13c.05-.06-.06-.2-.13-.13Z"/>
  <path class="st7" d="M50.86,11.17s-.05-.2-.13-.13.07.2.13.13Z"/>
  <path class="st7" d="M50.61,5.82c.07,0,.15-.11,0-.13-.15-.02-.15.09,0,.13Z"/>
  <path class="st7" d="M50.61,11.55c.04.09,0,.26.13.26s0-.26-.13-.26Z"/>
  <path class="st7" d="M50.61,15.88s.07.2.13.13c.06-.07-.05-.18-.13-.13Z"/>
  <path class="st7" d="M50.73,30.29s-.05-.18-.13-.13c-.07.06.07.2.13.13Z"/>
  <path class="st7" d="M50.61,6.45s-.06-.2-.13-.13c-.07.07.07.18.13.13Z"/>
  <path class="st7" d="M50.48,12.82s-.06-.18-.13-.13c-.07.06.07.2.13.13Z"/>
  <path class="st7" d="M50.48,23.16s-.06-.2-.13-.13.07.2.13.13Z"/>
  <path class="st7" d="M50.48,32.09c-.21-.04-.34.04-.38.26.19.02.32-.07.38-.26Z"/>
  <path class="st7" d="M50.48,35.14s-.06-.2-.13-.13.07.18.13.13Z"/>
  <path class="st7" d="M50.1,18.44s-.06-.2-.13-.13c-.07.07.07.18.13.13Z"/>
  <path class="st7" d="M49.98,18.57c-.22.07-.74-.16-.76.13.29.11.79.22.76-.13Z"/>
  <path class="st7" d="M49.85,21.88s.07.18.13.13c.05-.06-.06-.2-.13-.13Z"/>
  <path class="st7" d="M49.85,40.36s.07.2.13.13c.05-.07-.06-.18-.13-.13Z"/>
  <path class="st7" d="M49.85,42.53s.07.2.13.13c.05-.07-.06-.18-.13-.13Z"/>
  <path class="st7" d="M49.72,43.04h.26v-.26h-.26v.26Z"/>
  <path class="st7" d="M49.72,30.92s.07.2.13.15c.06-.05-.05-.2-.13-.15Z"/>
  <path class="st7" d="M49.72,7.98s-.05-.2-.13-.13.07.18.13.13Z"/>
  <path class="st7" d="M49.6,32.47c.04.09.02.23.13.26.11.02,0-.26-.13-.26Z"/>
  <path class="st7" d="M49.6,8.11h-.26v.26h.26v-.26Z"/>
  <path class="st7" d="M49.34,19.08s-.05-.2-.13-.13.07.18.13.13Z"/>
  <path class="st7" d="M49.22,32.98c.07,0,.15-.11,0-.13-.15-.02-.15.09,0,.13Z"/>
  <path class="st7" d="M49.09,26.46s-.06-.2-.13-.13c-.07.07.07.2.13.13Z"/>
  <path class="st7" d="M48.84,17.81c.07,0,.15-.11,0-.15-.15-.04-.15.11,0,.15Z"/>
  <path class="st7" d="M48.84,41.77c0,.09-.02.16-.13.13v.26c.32.2.38-.42.13-.38Z"/>
  <path class="st7" d="M48.71,42.66s.07.2.13.13c.06-.07-.05-.18-.13-.13Z"/>
  <path class="st7" d="M48.71,44.97s.07.18.13.13c.06-.05-.05-.2-.13-.13Z"/>
  <path class="st7" d="M48.59,29.52s-.06-.18-.13-.13c-.07.05.07.2.13.13Z"/>
  <path class="st7" d="M48.59,29.9s-.06-.18-.13-.13c-.07.05.07.2.13.13Z"/>
  <path class="st7" d="M48.59,39.85s-.06-.18-.13-.13c-.07.05.07.2.13.13Z"/>
  <path class="st7" d="M48.33,33.87s.07.18.13.13c.06-.05-.05-.2-.13-.13Z"/>
  <path class="st7" d="M48.46,34.25s-.05-.2-.13-.13.07.18.13.13Z"/>
  <path class="st7" d="M48.08,19.84s.07.18.13.13c.05-.05-.05-.2-.13-.13Z"/>
  <path class="st7" d="M48.08,29.4s.07.2.13.13-.05-.18-.13-.13Z"/>
  <path class="st7" d="M48.21,35.4v-.38c0-.74-.32.42,0,.38Z"/>
  <path class="st7" d="M48.21,40.36s-.05-.18-.13-.13c-.07.06.07.2.13.13Z"/>
  <path class="st7" d="M48.08,5.56s-.06-.2-.13-.13c-.07.07.07.18.13.13Z"/>
  <path class="st7" d="M47.95,6.71c-.14.02-.07.13,0,.26.09,0,.13-.04.13-.13,0-.08-.04-.13-.13-.13Z"/>
  <path class="st7" d="M47.72,9.51v.38c.15-.02.34.02.36-.13.02-.15-.09-.33-.36-.26Z"/>
  <path class="st7" d="M47.72,9.13s-.07-.2-.13-.13.05.18.13.13Z"/>
  <path class="st7" d="M47.59,10.53c.02.15-.04.36.13.39.17.02.02-.36-.13-.39Z"/>
  <path class="st7" d="M47.45,19.71c.02.13-.09.15-.1.26-.02.11.43.02.38-.26h-.27Z"/>
  <path class="st7" d="M47.59,33.74s.05.18.13.13c.07-.06-.07-.2-.13-.13Z"/>
  <path class="st7" d="M47.21,34.25c0,.15-.2.2,0,.26.2.06.15-.23,0-.26Z"/>
  <path class="st7" d="M46.96,29.01c0,.15-.2.2,0,.26.2.06.14-.22,0-.26Z"/>
  <path class="st7" d="M46.2,37.05c0,.29.54.69.76.39-.11-.29-.54-.22-.76-.39Z"/>
  <path class="st7" d="M46.71,14.35c.2.09.2-.6,0-.51-.14.39-.13.91-.25,1.28.43-.06.31-.47.25-.77Z"/>
  <path class="st7" d="M46.71,29.65s.06.2.13.13c.07-.07-.07-.18-.13-.13Z"/>
  <path class="st7" d="M46.71,30.92c.43-.51-.41-.29,0,0Z"/>
  <path class="st7" d="M46.58,17.15c-.02-.13.18-.18,0-.26-.08,0-.13.04-.13.13,0,.09.04.13.13.13Z"/>
  <path class="st7" d="M46.33,32.34h.38c-.09-.68.07-.84-.25-1.17-.13.23-.31.38-.38.66-.07.27.34-.04.38.13.04.17-.15.2-.13.39Z"/>
  <path class="st7" d="M46.58,15.37s-.07-.18-.13-.13c-.06.06.05.2.13.13Z"/>
  <path class="st7" d="M46.58,16.39c.02-.31-.07-.53-.26-.64.06.26-.18.78.26.64Z"/>
  <path class="st7" d="M46.33,20.1c.07,0,.15-.11,0-.13-.14-.02-.14.09,0,.13Z"/>
  <path class="st7" d="M46.33,20.48c-.02-.15.18-.2,0-.26-.08,0-.13.04-.13.13,0,.08.04.13.13.13Z"/>
  <path class="st7" d="M46.33,46.88s.06.18.13.13c.07-.06-.07-.2-.13-.13Z"/>
  <path class="st7" d="M46.33,5.05s-.07-.2-.13-.15c-.05.06.06.2.13.15Z"/>
  <path class="st7" d="M46.2,17.15c.02.11,0,.26.13.26s-.02-.24-.13-.26Z"/>
  <path class="st7" d="M46.2,16.26s-.07-.18-.13-.13c-.05.06.05.2.13.13Z"/>
  <path class="st7" d="M46.08,25.95c-.07,0-.15.11,0,.13.15.02.15-.11,0-.13Z"/>
  <path class="st7" d="M46.08,29.78s.05.2.13.13-.07-.18-.13-.13Z"/>
  <path class="st7" d="M46.08,31.07c-.08,0-.13.04-.13.13,0,.09.04.13.13.13-.02-.15.18-.2,0-.26Z"/>
  <path class="st7" d="M45.95,4.8c-.04-.11-.02-.26-.13-.26s0,.24.13.26Z"/>
  <path class="st7" d="M45.95,32.47c-.04-.11-.02-.26-.13-.26s0,.23.13.26Z"/>
  <path class="st7" d="M45.7,29.9s.06.2.13.13c.07-.07-.07-.18-.13-.13Z"/>
  <path class="st7" d="M45.7,33.87s.06.18.13.13c.07-.05-.07-.2-.13-.13Z"/>
  <path class="st7" d="M45.82,36.42c-.02-.15.02-.36-.13-.38-.15-.02-.04.36.13.38Z"/>
  <path class="st7" d="M45.57,30.54c.02.11,0,.26.13.26s-.02-.24-.13-.26Z"/>
  <path class="st7" d="M45.57,48.15s.05.18.13.13c.07-.05-.07-.2-.13-.13Z"/>
  <path class="st7" d="M45.45,4.4s.02-.09.05-.13h-.27c.04.1.11.15.22.13Z"/>
  <path class="st7" d="M45.32,27.61c-.02-.4.33-.42.26-.89-.34.09-.26-.26-.51-.26.04.31.2.47.13.89-.11.04-.25,0-.25.13s.14.02.13.13h.25Z"/>
  <path class="st7" d="M45.57,27.61c-.32.02-.4.24-.63,0-.02.4.11.66.38.77-.07-.4.38-.29.26-.77Z"/>
  <path class="st7" d="M45.57,30.29c-.2-.02-.09-.28,0-.39-.56-.07-.31.84,0,.39Z"/>
  <path class="st7" d="M45.45,32.47s.05.18.13.13c.07-.05-.07-.2-.13-.13Z"/>
  <path class="st7" d="M45.32,45.35c-.02-.4.4-.36.26-.89-.54-.06-.65.69-.26.89Z"/>
  <path class="st7" d="M45.45,5.94s-.07-.2-.13-.13c-.05.07.06.18.13.13Z"/>
  <path class="st7" d="M45.32,37.69c-.43-.31.31.44,0,0Z"/>
  <path class="st7" d="M45.32,5.31s-.07-.2-.13-.13c-.05.07.06.18.13.13Z"/>
  <path class="st7" d="M45.32,19.46s-.07-.2-.13-.13c-.05.07.06.18.13.13Z"/>
  <path class="st7" d="M45.32,19.84s-.07-.2-.13-.13c-.05.07.06.18.13.13Z"/>
  <path class="st7" d="M45.32,40.23s-.07-.18-.13-.13c-.05.05.06.2.13.13Z"/>
  <path class="st7" d="M45.19,48.66s.06.18.13.13c.07-.05-.07-.2-.13-.13Z"/>
  <path class="st7" d="M45.19,39.98s-.07-.18-.13-.13c-.06.06.05.2.13.13Z"/>
  <path class="st7" d="M44.94,41.13c-.02-.17.51-.39.13-.51.02.18-.53.38-.13.51Z"/>
  <path class="st7" d="M45.07,8.88s-.07-.2-.13-.13c-.06.07.05.18.13.13Z"/>
  <path class="st7" d="M44.94,32.09c.34-.62-.42-.31,0,0Z"/>
  <path class="st7" d="M45.07,32.47s-.07-.2-.13-.13c-.06.07.05.18.13.13Z"/>
  <path class="st7" d="M44.94,9.89c-.04-.11,0-.26-.13-.26s0,.26.13.26Z"/>
  <path class="st7" d="M44.94,19.08c-.04-.11,0-.26-.13-.26s0,.24.13.26Z"/>
  <path class="st7" d="M44.94,38.07s-.07-.2-.13-.13c-.05.07.06.2.13.13Z"/>
  <path class="st7" d="M44.69,18.57s.05.18.13.13c.07-.06-.07-.2-.13-.13Z"/>
  <path class="st7" d="M44.81,23.03s-.07-.2-.13-.13.05.2.13.13Z"/>
  <path class="st7" d="M44.69,32.59c.02.09,0,.24.13.26.13.02,0-.26-.13-.26Z"/>
  <path class="st7" d="M44.81,39.98s-.07-.18-.13-.13c-.05.06.05.2.13.13Z"/>
  <path class="st7" d="M44.69,41.64c-.16.04-.09.15,0,.26.08,0,.13-.04.13-.13s-.04-.13-.13-.13Z"/>
  <path class="st7" d="M44.69,17.66s-.07-.18-.13-.13c-.06.06.05.2.13.13Z"/>
  <path class="st7" d="M44.56,12.06s-.07-.2-.13-.13c-.06.07.05.2.13.13Z"/>
  <path class="st7" d="M44.56,16.77c-.04-.09,0-.24-.13-.26-.13-.02,0,.26.13.26Z"/>
  <path class="st7" d="M44.56,26.08s-.07-.18-.13-.13c-.06.06.05.2.13.13Z"/>
  <path class="st7" d="M44.44,33.61s.05.18.13.13c.07-.05-.07-.2-.13-.13Z"/>
  <path class="st7" d="M44.44,42.4c-.17.04-.09.15,0,.26.08,0,.13-.04.13-.13,0-.09-.04-.13-.13-.13Z"/>
  <path class="st7" d="M44.44,42.91s.05.2.13.13-.07-.18-.13-.13Z"/>
  <path class="st7" d="M44.31,43.17c-.04.21.05.34.26.38-.02-.2.02-.44-.26-.38Z"/>
  <path class="st7" d="M44.31,12.31c.07,0,.15-.11,0-.13-.14-.02-.14.11,0,.13Z"/>
  <path class="st7" d="M44.31,25.57s.06.2.13.13c.07-.07-.07-.2-.13-.13Z"/>
  <path class="st7" d="M44.31,33.36s.06.18.13.13c.07-.06-.07-.2-.13-.13Z"/>
  <path class="st7" d="M44.31,34.89s.06.18.13.13c.07-.06-.07-.2-.13-.13Z"/>
  <path class="st7" d="M44.44,36.54s-.07-.2-.13-.13c-.05.07.06.2.13.13Z"/>
  <path class="st7" d="M44.44,37.18s-.07-.2-.13-.13c-.05.07.06.2.13.13Z"/>
  <path class="st7" d="M44.44,40.74c-.04-.09,0-.26-.13-.26s0,.26.13.26Z"/>
  <path class="st7" d="M44.31,48.41s.06.18.13.13c.07-.05-.07-.2-.13-.13Z"/>
  <path class="st7" d="M44.18,21.11c-.09-.05-.13.06-.13.13.02.38.52.09.13-.13Z"/>
  <path class="st7" d="M44.18,41.51s.05.2.13.13-.07-.18-.13-.13Z"/>
  <path class="st7" d="M43.93,8.74h.25v-.26h-.25v.26Z"/>
  <path class="st7" d="M44.06,27.99s.05.2.13.13-.07-.18-.13-.13Z"/>
  <path class="st7" d="M44.06,28.25s.05.2.13.13-.07-.18-.13-.13Z"/>
  <path class="st7" d="M44.18,36.04h-.38c-.18.36.56.36.38,0Z"/>
  <path class="st7" d="M44.06,5.05s-.07-.2-.13-.15c-.06.06.05.2.13.15Z"/>
  <path class="st7" d="M43.93,20.22c.02.09,0,.24.13.26.13.02,0-.26-.13-.26Z"/>
  <path class="st7" d="M43.8,28.89c-.04.21.05.34.26.38.02-.2-.07-.32-.26-.38Z"/>
  <path class="st7" d="M43.93,34.38c-.02.07-.02.15-.13.13v.26c.31.2.36-.44.13-.38Z"/>
  <path class="st7" d="M44.06,36.8h-.26v.26h.26v-.26Z"/>
  <path class="st7" d="M43.93,7.22s-.07-.2-.13-.13c-.05.07.06.18.13.13Z"/>
  <path class="st7" d="M43.8,13.58c-.08,0-.13.04-.13.13,0,.08.04.13.13.13-.02-.15.18-.2,0-.26Z"/>
  <path class="st7" d="M43.8,26.59s.06.2.13.13c.07-.07-.07-.18-.13-.13Z"/>
  <path class="st7" d="M43.8,27.35s.06.2.13.13c.07-.07-.07-.18-.13-.13Z"/>
  <path class="st7" d="M43.93,27.99s-.07-.18-.13-.13c-.05.06.06.2.13.13Z"/>
  <path class="st7" d="M43.93,33.36s-.07-.2-.13-.13c-.05.07.06.18.13.13Z"/>
  <path class="st7" d="M43.68,5.56c-.43-.31.31.42,0,0Z"/>
  <path class="st7" d="M43.68,6.83s.05.18.13.13c.07-.06-.07-.2-.13-.13Z"/>
  <path class="st7" d="M43.68,15.88s.05.2.13.13-.07-.18-.13-.13Z"/>
  <path class="st7" d="M43.68,36.42c.02.15-.18.2,0,.26.08,0,.13-.04.13-.13,0-.08-.04-.13-.13-.13Z"/>
  <path class="st7" d="M43.68,14.47c-.2-.05-.28-.18-.26-.38.09-.02.26,0,.26-.13-.59-.47-.22.93-1.01.64.04.3.16.55.38.77.02-.15.2-.13.38-.13-.1-.44.15-.53.26-.77Z"/>
  <path class="st7" d="M43.55,26.85s.05.2.13.13-.07-.18-.13-.13Z"/>
  <path class="st7" d="M43.68,32.98c.13-.69-.38-.17,0,0Z"/>
  <path class="st7" d="M43.42,22.77c.02.09,0,.26.13.26s0-.26-.13-.26Z"/>
  <path class="st7" d="M42.92,5.82c-.09.02-.25,0-.25.13.43.22-.36.93.25,1.02,0-.73.26-1.2.51-1.66-.54.07-.03-.36-.13-.56l-.25.09c-.18.29-.36.67-.13.98Z"/>
  <path class="st7" d="M43.42,13.46s-.07-.18-.13-.13c-.05.06.06.2.13.13Z"/>
  <path class="st7" d="M43.05,22.14v.26c.13,0,.14.11.25.13,0-.14.04-.27.13-.38h-.38Z"/>
  <path class="st7" d="M43.17,16.64s.05.2.13.13-.05-.18-.13-.13Z"/>
  <path class="st7" d="M43.17,22.01s-.07-.2-.13-.13c-.06.07.05.18.13.13Z"/>
  <path class="st7" d="M43.05,14.47c.01-.21-.08-.39-.26-.51,0,.14-.04.27-.13.38.16.02.18.16.38.13Z"/>
  <path class="st7" d="M42.92,18.95s.06.18.13.13c.07-.05-.06-.2-.13-.13Z"/>
  <path class="st7" d="M42.92,30.03c-.13.02-.16.23,0,.26.17.02.18-.2,0-.26Z"/>
  <path class="st7" d="M42.92,12.44s-.05-.2-.13-.13.06.2.13.13Z"/>
  <path class="st7" d="M42.92,19.84s-.05-.2-.13-.13.06.18.13.13Z"/>
  <path class="st7" d="M42.92,21.5s-.05-.2-.13-.13.06.18.13.13Z"/>
  <path class="st7" d="M42.54,15.88c0,.17-.17.18-.13.39h.26c.31,0,.02-.42-.13-.39Z"/>
  <path class="st7" d="M42.67,20.35s.05.18.13.13c.07-.05-.05-.2-.13-.13Z"/>
  <path class="st7" d="M42.67,21.24c.27-.66-.47-.8,0,0Z"/>
  <path class="st7" d="M42.41,34.89c.15-.02.36.02.38-.13h-.25c.2-.29-.02-.71-.26-.38.18.02.11.31.13.51Z"/>
  <path class="st7" d="M42.67,48.02s.05.18.13.13c.07-.06-.05-.2-.13-.13Z"/>
  <path class="st7" d="M42.67,5.56s-.06-.2-.13-.13c-.07.07.05.18.13.13Z"/>
  <path class="st7" d="M42.54,19.33s.05.18.13.13c.07-.06-.06-.2-.13-.13Z"/>
  <path class="st7" d="M42.67,34.13s-.06-.2-.13-.13c-.07.07.05.18.13.13Z"/>
  <path class="st7" d="M42.67,35.4c-.04-.11,0-.26-.13-.26s0,.26.13.26Z"/>
  <path class="st7" d="M42.41,8.49s.06.18.13.13c.07-.06-.06-.2-.13-.13Z"/>
  <path class="st7" d="M42.54,9.13s-.06-.2-.13-.13c-.07.07.06.18.13.13Z"/>
  <path class="st7" d="M42.41,47.13s.06.18.13.13c.07-.06-.06-.2-.13-.13Z"/>
  <path class="st7" d="M42.41,33.99s-.05-.2-.13-.13.06.18.13.13Z"/>
  <path class="st7" d="M42.16,9.26c-.13.11-.27.82,0,.89s.27-.82,0-.89Z"/>
  <path class="st7" d="M42.29,48.28s-.05-.2-.13-.13.05.18.13.13Z"/>
  <path class="st7" d="M41.91,9c.26-.15.42-1.02.13-1.27-.17.87-.44,1.42-.51,2.16.45.02.57-.66.38-.89Z"/>
  <path class="st7" d="M42.16,41.13s-.06-.18-.13-.13c-.07.06.05.2.13.13Z"/>
  <path class="st7" d="M42.04,46.62c.04.09,0,.26.13.26s0-.26-.13-.26Z"/>
  <path class="st7" d="M42.04,10.53c-.04-.09,0-.25-.13-.25s0,.25.13.25Z"/>
  <path class="st7" d="M41.91,14.6s.06.2.13.13c.07-.07-.06-.18-.13-.13Z"/>
  <path class="st7" d="M42.04,35.27s-.06-.2-.13-.13c0,.07.07.18.13.13Z"/>
  <path class="st7" d="M41.91,48.41s-.05-.2-.13-.13.05.18.13.13Z"/>
  <path class="st7" d="M41.78,42.66s-.05-.18-.13-.13c-.07.05.05.2.13.13Z"/>
  <path class="st7" d="M41.4,10.02c-.21.16.2.72-.13,1.02.47.07.54-.96.13-1.02Z"/>
  <path class="st7" d="M41.53,12.31s-.11.02-.13,0l-.25-.13c-.18.15.45.58.38.13Z"/>
  <path class="st7" d="M41.53,42.91s-.06-.18-.13-.13c-.07.06.06.2.13.13Z"/>
  <path class="st7" d="M41.4,43.42c.04.11,0,.26.13.26s0-.24-.13-.26Z"/>
  <path class="st7" d="M41.28,11.68c-.15.04-.07.14,0,.25.08,0,.13-.04.13-.13s-.04-.13-.13-.13Z"/>
  <path class="st7" d="M41.4,13.46c-.04-.09,0-.26-.13-.26s0,.26.13.26Z"/>
  <path class="st7" d="M41.4,48.53s-.05-.2-.13-.13.05.18.13.13Z"/>
  <path class="st7" d="M41.15,14.09s.05.2.13.13-.05-.18-.13-.13Z"/>
  <path class="st7" d="M41.15,15.63s.05.2.13.13-.05-.18-.13-.13Z"/>
  <path class="st7" d="M41.28,46.75s-.05-.2-.13-.13.05.18.13.13Z"/>
  <path class="st7" d="M41.03,26.72s.05.2.13.13-.06-.18-.13-.13Z"/>
  <path class="st7" d="M40.9,17.02c-.02-.13.18-.2,0-.25-.18-.06-.16.23,0,.25Z"/>
  <path class="st7" d="M40.65,6.58c.05-.46.29-.64.14-.95l-.13.05c-.07.35-.32.66-.02.9Z"/>
  <path class="st7" d="M40.9,22.39s-.05-.2-.13-.13.05.18.13.13Z"/>
  <path class="st7" d="M40.77,47.26c-.26-.11-.56.33-.26.38.02-.2.33-.11.26-.38Z"/>
  <path class="st7" d="M40.65,6.96c-.02-.11,0-.26-.13-.26s0,.23.13.26Z"/>
  <path class="st7" d="M40.65,13.46c-.09-.02-.15-.11-.13-.26-.78-.07.04.89.13.26Z"/>
  <path class="st7" d="M40.61,43.95v.13h.02s.02-.09-.02-.13Z"/>
  <path class="st7" d="M40.52,8.23c-.02-.23.13-.64-.25-.51-.04.29.04.47.25.51Z"/>
  <path class="st7" d="M40.39,14.73s.06.2.13.13c.07-.07-.05-.18-.13-.13Z"/>
  <path class="st7" d="M40.39,41.77c.04.11,0,.26.13.26s0-.24-.13-.26Z"/>
  <path class="st7" d="M40.27,10.66s.07.2.13.13c.06-.07-.05-.2-.13-.13Z"/>
  <path class="st7" d="M39.13,22.65c-.13.55.48.34.63.64.16-.22.59-.16.63-.51-.51.15-.74-.02-1.26-.13Z"/>
  <path class="st7" d="M40.39,41.64s-.04-.15-.09-.13v.07c0,.05.05.11.09.05Z"/>
  <path class="st7" d="M40.27,10.02s-.05-.2-.13-.13c-.07.07.05.2.13.13Z"/>
  <path class="st7" d="M40.27,17.92s-.05-.18-.13-.11.05.18.13.11Z"/>
  <path class="st7" d="M40.01,47.52s.07.18.13.13c.05-.05-.06-.2-.13-.13Z"/>
  <path class="st7" d="M40.01,13.84c-.02-.09,0-.26-.13-.26s0,.26.13.26Z"/>
  <path class="st7" d="M39.76,14.22c.08,0,.13-.05.13-.13s-.04-.13-.13-.13c-.15.04-.07.15,0,.26Z"/>
  <path class="st7" d="M39.76,15.63c.18.49-.32.93,0,1.15.2-.09.2-1.47,0-1.15Z"/>
  <path class="st7" d="M39.76,17.81c.02-.39.18-.64,0-.91-.11.11-.27.82,0,.91Z"/>
  <path class="st7" d="M39.76,17.92c.04.11,0,.26.13.26s0-.24-.13-.26Z"/>
  <path class="st7" d="M39.76,18.44s.07.18.13.13c.06-.05-.05-.2-.13-.13Z"/>
  <path class="st7" d="M39.89,26.46c-.02-.09,0-.26-.13-.26s0,.26.13.26Z"/>
  <path class="st7" d="M39.76,26.72c-.02.22-.42.66-.13.77.29.11.48-.58.13-.77Z"/>
  <path class="st7" d="M39.38,11.42c-.02-.35.2-.44.38-.26v-.39c-.42-.16-.67.49-.38.64Z"/>
  <path class="st7" d="M39.64,13.58s.07.2.13.13c.05-.07-.06-.18-.13-.13Z"/>
  <path class="st7" d="M39.76,20.22s-.06-.2-.13-.13c-.07.07.07.18.13.13Z"/>
  <path class="st7" d="M39.64,21.76c.07,0,.14-.11,0-.13-.15-.02-.15.09,0,.13Z"/>
  <path class="st7" d="M39.51,23.41c.04.09,0,.26.13.26s0-.26-.13-.26Z"/>
  <path class="st7" d="M39.51,28.38s.07.2.13.13c.05-.07-.06-.18-.13-.13Z"/>
  <path class="st7" d="M39.38,16.13s.07.2.13.13c.06-.07-.05-.18-.13-.13Z"/>
  <path class="st7" d="M39.51,24.68c-.02-.09,0-.26-.13-.26s0,.26.13.26Z"/>
  <path class="st7" d="M39.38,24.94s.07.2.13.13c.06-.07-.05-.2-.13-.13Z"/>
  <path class="st7" d="M39.38,12.95c-.05-.23.18-.77-.25-.64-.02.33.07.53.25.64Z"/>
  <path class="st7" d="M39.26,25.19s.07.2.13.13c.06-.07-.05-.2-.13-.13Z"/>
  <path class="st7" d="M39.26,26.21c.04.11,0,.26.13.26s0-.26-.13-.26Z"/>
  <path class="st7" d="M39.26,29.65c.04.11,0,.25.13.25s0-.23-.13-.25Z"/>
  <path class="st7" d="M39.26,10.78c-.02-.09,0-.26-.13-.26s0,.26.13.26Z"/>
  <path class="st7" d="M39.26,20.73s-.06-.2-.13-.13c-.07.07.07.18.13.13Z"/>
  <path class="st7" d="M38.88,29.27h.26v-.26h-.26v.26Z"/>
  <path class="st7" d="M39,11.68s-.05-.2-.13-.13.07.2.13.13Z"/>
  <path class="st7" d="M38.88,18.82c.07,0,.15-.11,0-.13-.15-.02-.15.09,0,.13Z"/>
  <path class="st7" d="M38.88,29.52c0,.09-.02.17-.13.13v.05l.27.13c.04-.14,0-.32-.15-.31Z"/>
  <path class="st7" d="M38.75,19.71s.07.18.13.13c.05-.06-.05-.2-.13-.13Z"/>
  <path class="st7" d="M38.75,10.4s-.06-.2-.13-.13c-.07.07.07.2.13.13Z"/>
  <path class="st7" d="M38.75,10.78h-.26v.26h.26v-.26Z"/>
  <path class="st7" d="M38.63,21.63c.07,0,.14-.11,0-.13-.15-.02-.15.09,0,.13Z"/>
  <path class="st7" d="M38.37,8.36s-.05-.2-.13-.13c-.07.07.07.18.13.13Z"/>
  <path class="st7" d="M38.24,16.26s-.06-.18-.13-.13c-.07.06.07.2.13.13Z"/>
  <path class="st7" d="M38.24,20.48s-.06-.2-.13-.13c-.07.07.07.18.13.13Z"/>
  <path class="st7" d="M38.24,25.45s-.06-.2-.13-.13c-.07.07.07.2.13.13Z"/>
  <path class="st7" d="M37.99,29.27l-.05.04.13.06s.02-.07-.07-.09Z"/>
  <path class="st7" d="M37.86,11.04s-.05-.2-.13-.13.07.2.13.13Z"/>
  <path class="st7" d="M37.86,11.29s-.05-.2-.13-.13.07.2.13.13Z"/>
  <path class="st7" d="M37.86,20.1s-.05-.2-.13-.13c-.07.07.07.18.13.13Z"/>
  <path class="st7" d="M37.86,25.7v-.26c-.13,0-.15-.11-.26-.13-.1-.02-.02.44.26.39Z"/>
  <path class="st7" d="M37.74,12.31c-.02-.09,0-.26-.13-.26s.02.26.13.26Z"/>
  <path class="st7" d="M37.61,13.33c.09,0,.13-.04.13-.13s-.04-.13-.13-.13c.02.15-.18.2,0,.26Z"/>
  <path class="st7" d="M37.36,24.68c.04.09.02.26.13.26s0-.26-.13-.26Z"/>
  <path class="st7" d="M37.36,11.17s-.05-.2-.13-.13.07.2.13.13Z"/>
  <path class="st7" d="M37.23,13.84c.07,0,.14-.11,0-.13-.15-.02-.15.11,0,.13Z"/>
  <path class="st7" d="M37.23,24.43s.07.2.13.13-.05-.2-.13-.13Z"/>
  <path class="st7" d="M37.23,11.68s-.06-.2-.13-.13c-.07.07.07.2.13.13Z"/>
  <path class="st7" d="M37.23,18.31c-.22-.05.04-.16,0-.4-.51-.2-.18.94,0,.4Z"/>
  <path class="st7" d="M37.23,25.32c-.18.07-.65-.15-.64.13.33-.02.4.2.64.26v-.39Z"/>
  <path class="st7" d="M37.1,26.72s.07.2.13.13c.05-.07-.06-.18-.13-.13Z"/>
  <path class="st7" d="M37.1,17.81s-.05-.2-.13-.15c-.07.05.07.2.13.15Z"/>
  <path class="st7" d="M37.1,23.79c-.04-.29-.13-.55-.38-.64.05.29.14.54.38.64Z"/>
  <path class="st7" d="M36.98,19.46s-.05-.2-.13-.13.07.18.13.13Z"/>
  <path class="st7" d="M36.98,21.88h-.25v.26h.25v-.26Z"/>
  <path class="st7" d="M35.99,17.92c.09-.4.56-.44.86-.64-.29.06-.27-.22-.63-.13-.04.22-.58.58-.23.77Z"/>
  <path class="st7" d="M36.6,24.81s.07.2.13.13c.05-.07-.06-.2-.13-.13Z"/>
  <path class="st7" d="M36.6,28.12s.07.2.13.13c.05-.07-.06-.18-.13-.13Z"/>
  <path class="st7" d="M36.47,17.53s.07.2.13.13c.06-.07-.05-.18-.13-.13Z"/>
  <path class="st7" d="M36.47,19.59s.07.18.13.13c.06-.05-.05-.2-.13-.13Z"/>
  <path class="st7" d="M36.47,21.5s.07.18.13.13c.06-.05-.05-.2-.13-.13Z"/>
  <path class="st7" d="M36.35,25.19s.07.2.13.13c.06-.07-.05-.2-.13-.13Z"/>
  <path class="st7" d="M36.22,28.38h.25v-.26h-.25v.26Z"/>
  <path class="st7" d="M36.09,17.92s.07.2.13.15c.05-.06-.06-.2-.13-.15Z"/>
  <path class="st7" d="M36.09,18.7s.07.18.13.13c.05-.05-.06-.2-.13-.13Z"/>
  <path class="st7" d="M36.09,22.77h-.61c-.05.6.58.35.61,0Z"/>
  <path class="st7" d="M35.99,24.3c-.07,0-.15.11,0,.13.14.02.13-.11,0-.13Z"/>
  <path class="st7" d="M35.99,23.66c-.04-.11-.02-.26-.13-.26s0,.26.13.26Z"/>
  <path class="st7" d="M35.72,24.05s-.06-.2-.11-.13c-.06.07.05.2.11.13Z"/>
  <path class="st7" d="M35.48,26.34s.06.2.13.13-.07-.2-.13-.13Z"/>
  <path class="st7" d="M35.35,22.9s-.07-.2-.13-.13.05.2.13.13Z"/>
  <path class="st7" d="M35.35,23.41s-.07-.2-.13-.13.05.2.13.13Z"/>
  <path class="st7" d="M35.23,27.35c0,.15-.2.2,0,.26.2.06.15-.22,0-.26Z"/>
  <path class="st7" d="M35.23,16.13s-.07-.18-.13-.13c-.06.05.05.2.13.13Z"/>
  <path class="st7" d="M34.72,24.56c.18-.02.35.03.51.13v-.38c-.32-.07-.51-.22-.51.26Z"/>
  <path class="st7" d="M34.6,23.54c-.11.66-.64-.13-.89-.13s.15.28.13.51c.51-.09.72.13,1.14.13.02-.33-.2-.4-.38-.51Z"/>
  <path class="st7" d="M34.47,27.35c.4.07.34-.31.51-.51-.3.05-.59.09-.51.51Z"/>
  <path class="st7" d="M34.85,21.11h-.25v.26h.25v-.26Z"/>
  <path class="st7" d="M34.6,11.8s-.07-.2-.13-.13c-.05.07.06.2.13.13Z"/>
  <path class="st7" d="M34.34,15.37c-.05.18-.18.26-.13.51.08.05.16.05.24.02.08-.04.14-.09.16-.18s0-.17-.05-.24c-.06-.07-.13-.1-.22-.1Z"/>
  <path class="st7" d="M34.47,17.53s.06.2.13.13-.07-.18-.13-.13Z"/>
  <path class="st7" d="M34.6,26.59s-.07-.18-.13-.13c-.05.06.06.2.13.13Z"/>
  <path class="st7" d="M34.34,22.14c-.07,0-.15.11,0,.13.15.02.15-.11,0-.13Z"/>
  <path class="st7" d="M34.22,18.31s.05.18.13.13c.07-.06-.07-.2-.13-.13Z"/>
  <path class="st7" d="M34.09,26.34c-.44-.31.31.44,0,0Z"/>
  <path class="st7" d="M33.96,13.97c.07,0,.15-.09,0-.13-.14-.04-.14.11,0,.13Z"/>
  <path class="st7" d="M34.09,23.03s-.07-.2-.13-.13c-.05.07.06.2.13.13Z"/>
  <path class="st7" d="M33.96,24.68s.06.2.13.13c.07-.07-.07-.2-.13-.13Z"/>
  <path class="st7" d="M33.59,26.59c-.13.42.4.18.51.38.04-.33-.27-.33-.51-.38Z"/>
  <path class="st7" d="M33.84,14.47s-.07-.18-.13-.13c-.06.05.05.2.13.13Z"/>
  <path class="st7" d="M33.71,18.95c0,.13-.18.2,0,.26.18.05.15-.24,0-.26Z"/>
  <path class="st7" d="M33.59,13.84s-.07-.18-.13-.13c-.05.05.06.2.13.13Z"/>
  <path class="st7" d="M33.46,16.64s.06.2.13.13c.07-.07-.07-.18-.13-.13Z"/>
  <path class="st7" d="M33.33,14.09c-.43-.31.31.44,0,0Z"/>
  <path class="st7" d="M33.26,26.46l.06.15h.02s-.02-.13-.07-.15Z"/>
  <path class="st7" d="M33.21,16.64c-.11-.03-.22-.02-.33.04-.1.06-.18.14-.21.26-.07.09-.13.18-.22.22.07.02.15.02.22,0,.31-.04.45-.23.54-.51Z"/>
  <path class="st7" d="M32.83,24.43s.05.2.13.13-.07-.2-.13-.13Z"/>
  <path class="st7" d="M32.7,14.47s.05.2.13.13-.07-.18-.13-.13Z"/>
  <path class="st7" d="M32.83,15.88v-.25h-.26v.25h.26Z"/>
  <path class="st7" d="M66.89,12.06c0-.07.04-.09.09-.13l-.05-.18c-.13.09-.2.18-.04.31Z"/>
  <path class="st7" d="M66.89,13.07c-.15-.09.31-.09.26,0,.2-.31-.27-.13-.26-.13.02,0-.09.06,0,.13Z"/>
  <path class="st7" d="M65.76,11.55c0-.22.34-.07.38-.26-.26-.11-.71.2-.38.26Z"/>
  <path class="st7" d="M65.25,13.07c.25-.03.25.18.38.26-.13-.78.38-.18.51-.76-.36.09-.72.2-.89.51Z"/>
  <path class="st7" d="M62.72,13.2c.53-.02.56-.53,1.27-.38.18-.28.34-.6.89-.51.04-.31.78-.56.51-.77-.45.22-1.03.85-1.52.64-.26.47-.85.58-1.14,1.02Z"/>
  <path class="st7" d="M64.56,9.6l-.29-.22c.06.39.21.73.47,1.02-.09-.26-.15-.53-.18-.8Z"/>
  <path class="st7" d="M62.47,11.42c.32-.02.4.2.51.38.11.18.54.69.25.38-.29-.31.15-.85.26-.51-.07,0-.15.02-.13.13.47.02.68-.66.51-.89-.54-.04-.31.71-.89.64-.29-.2-.23-.27-.13-.64-.33-.04-.42.18-.38.51Z"/>
  <path class="st7" d="M63.73,9.26c-.17.02-.38-.53-.51-.13.17-.02.47.42.51.13Z"/>
  <path class="st7" d="M62.85,8.36c-.22.04-.38-.6-.51-.26.25-.07.29.69.51.26Z"/>
  <path class="st7" d="M61.96,13.71c.25-.02.85-.33.51-.51-.34.47-1.14.47-1.39,1.02.56.09.53-.4.89-.51Z"/>
  <path class="st7" d="M62.09,19.71c-.34.39.4-.36,0,0Z"/>
  <path class="st7" d="M61.58,7.6c.04-.16.15-.09.26,0,0-.03,0-.06-.02-.09l-.34-.26.11.22c-.07,0-.15.09,0,.13Z"/>
  <path class="st7" d="M61.46,10.53c.02-.29.25-.87-.13-.51.36-.06-.31.47.13.51Z"/>
  <path class="st7" d="M59.56,15.24c.02-.23.43-.09.38-.38-.06-.29-.64.34-.38.38Z"/>
  <path class="st7" d="M59.81,32.09c-.02-.06-.2.02-.25,0-.05-.02-.09-.2-.13,0-.04.2.58.26.38,0Z"/>
  <path class="st7" d="M58.7,15.75c-.38.09-.78.16-.89.51.38.04,1.12-.71.89-.51Z"/>
  <path class="st7" d="M56.93,48.66c-.16-.04-.29.09-.22.18.02.04.05.06.09.07v-.07c.05-.06.1-.11.16-.17l-.06-.16.02.15Z"/>
  <path class="st7" d="M56.84,48.3v-.07s-.02.02-.02.05.02,0,.02.02Z"/>
  <path class="st7" d="M58.44,31.32c-.18.09-.04.13.13,0,.17-.13.02-.09-.13,0Z"/>
  <path class="st7" d="M58.44,32.85c.11-.56-.51-.36-.63-.64.09.56-.36-.2-.26.38.45-.27.56.06.89.26Z"/>
  <path class="st7" d="M57.31,33.61c-.42-.09-.2.26,0,.26-.06-.29.38-.69.13-.77-.07.26-.38.24-.13.51Z"/>
  <path class="st7" d="M57.18,16.9c-.03-.23.17-.23.26-.38-.27-.11-.58.34-.26.38Z"/>
  <path class="st7" d="M56.42,34.13c.09.36-.18.33-.13.64.05.31.54.11.63,0s-.2-.15-.26-.26c-.05-.11.11-.23.26-.26.05.16.13.28.25.39-.01-.15.03-.28.13-.39-.36-.23-.4-.22-.89-.13Z"/>
  <path class="st7" d="M56.04,48.66c-.22-.26,0-.17,0-.51-.38-.02-.38.51-.25.64.41.04.59-.15.63-.51-.45-.2-.07.44-.38.39Z"/>
  <path class="st7" d="M55.41,38.45c.02-.15.15-.2.25-.26.11-.05-.02.44.26.39v-.39c-.23-.18-.85,0-.51.26Z"/>
  <path class="st7" d="M55.45,48.84c.05.05.09.09.02,0l-.05-.06c-.23-.2-.07-.04.04.06Z"/>
  <path class="st7" d="M54.91,39.22c.04.15.13.28.25.38.02-.16-.2-.71-.25-.38Z"/>
  <path class="st7" d="M54.91,41c-.34.4.38-.34,0,0Z"/>
  <path class="st7" d="M54.53,39.6c-.34.39.38-.34,0,0Z"/>
  <path class="st7" d="M54.27,38.71c-.48.07-.57.53-.88.77.36.13.41-.04.25.51h.38c-.05-.35-.23-1.08.13-.77,0-.15-.04-.27-.13-.39.09-.02.25,0,.25-.13Z"/>
  <path class="st7" d="M54.02,45.47c-.34.39.38-.36,0,0Z"/>
  <path class="st7" d="M54.02,48.66c-.02.06-.05.13-.09.18-.11.13-.17.28-.17.45.36.02.38-.26.34-.45-.01-.07-.04-.13-.09-.18Z"/>
  <path class="st7" d="M53.22,48.84c-.25.13-.49.29-.72.45-.27-.22-.83.11-.89.51.58,0,.67-.29,1.01.13.13-.23-.38-.42,0-.51.38-.09.61.2.63-.13-.09-.04-.25,0-.25-.13.29-.05.56-.1.69-.32.03-.06.06-.12.07-.18-.19.04-.36.1-.54.18Z"/>
  <path class="st7" d="M53.64,45.6c-.09-.11-.11.23-.13.26-.18.36.23-.13.13-.26Z"/>
  <path class="st7" d="M53.01,46.88c-.09.46.21.46.13,0,.29-.26-.02-.26-.13,0Z"/>
  <path class="st7" d="M52.89,39.98s-.13-.24-.26-.13.74.42.26.13Z"/>
  <path class="st7" d="M52.76,48.66c-.38-.35.34.38,0,0Z"/>
  <path class="st7" d="M52.63,5.05c-.18-.02-.49.02-.25.13.14-.01.26-.05.38-.13v-.51h-.45l-.06.11c.27-.02.4.11.38.4Z"/>
  <path class="st7" d="M52.13,17.15c.32.13.04-.73,0-.26s-.22.56,0,.26Z"/>
  <path class="st7" d="M51.87,4.8c-.38-.36.34.39,0,0Z"/>
  <path class="st7" d="M51.87,31.18c.09-.04.2-.22,0-.11h-.13c-.16.04-.04.2.13.11Z"/>
  <path class="st7" d="M51.24,17.81c-.38-.36.34.38,0,0Z"/>
  <path class="st7" d="M51.11,35.4c-.38-.34.34.39,0,0Z"/>
  <path class="st7" d="M50.61,10.28c-.38-.35.34.38,0,0Z"/>
  <path class="st7" d="M47.72,18.7c0,.05-.1.15-.13,0-.02-.15.15-.11.23-.13.21.05.29.17.26.39.41-.07.59.07.88.13.29.06.17-.31,0-.13-.15.04-.26-.01-.33-.15-.07-.14-.04-.26.08-.36-.51.07-.74.2-.76-.13-.09.29-.76.35-.99.13-.04.31.2.38.25.64.34.13.87-.2.51-.38Z"/>
  <path class="st7" d="M48.96,34.76c.11-.09-.21-.13-.25-.13-.34-.18.13.22.25.13Z"/>
  <path class="st7" d="M47.95,8.36c.38.15.56-.55.26-.64-.36.89.13-1.04-.38-.51.36.2-.05.69-.11.89-.05.2.29.04.23.26Z"/>
  <path class="st7" d="M46.84,19.46c-.2.02-.47-.06-.51.13-.03.18.94.38.64.13-.31-.25-.16-.02-.13-.13.03-.11.21-.29,0-.38v.26Z"/>
  <path class="st7" d="M44.18,17.92c-.02-.15-.16-.17-.13-.39-.43-.09-.56.13-.64.39.34.11.26-.24.51-.26-.09.6.48.18.51.4-.44.42.1.71-.13,1.4-.16-.06-.78.02-.38.13.72-.11.03.42.38.64s.02-.09,0-.26c.26-.05.87-.38.64-.51-.23-.13-.02.14-.13.13-.4-.44-.21-.69-.38-1.28.25.28.4-.02.63-.14.02.19-.03.36-.13.53.67.15.86.4,1.39-.13.17.13.24.35.51.39.05-.4-.45-.35-.13-.64-.29-.07-.65-.25-.89,0-.04-.53-.57-.54-.88-.78.05.71-.53.07-.76.39ZM45.82,18.82c-.21-.04-.29-.17-.25-.38.43-.13.43.18.25.38Z"/>
  <path class="st7" d="M46.58,17.92c-.34.4.38-.35,0,0Z"/>
  <path class="st7" d="M46.46,37.69c-.04.15-.15.07-.26,0v.51c.31.13.42-.56.26-.51Z"/>
  <path class="st7" d="M46.08,44.18v-.04s-.02-.06-.02-.09c-.03-.26.02.05.02.13Z"/>
  <path class="st7" d="M46.09,44.15s.02-.04,0,0Z"/>
  <path class="st7" d="M46.08,44.18c-.11.26-.04.4,0,0Z"/>
  <path class="st7" d="M45.7,5.94c-.16,0-.16.35,0,.39.16.04.13-.2.26-.26.13-.06.09.15.13,0,.04-.15-.16-.02-.13-.13.04-.11.14-.02.13-.13-.29.16-.49-.35-.51,0,.07,0,.15.02.13.13Z"/>
  <path class="st7" d="M45.95,34.76c-.02.07-.02.15-.13.13-.1-.02-.27-.24-.51-.26.04.32-.48.09-.38.51.14.02.36-.02.38.13.02.15-.4.18-.38.51.14.04.31.67.51.26-.06-.04-.26-.47,0-.64.25-.16.2.18.25,0-.63-.36.7-.44.26-.64Z"/>
  <path class="st7" d="M45.57,16.52c-.1-.12-.18-.25-.26-.39-.36.55.49.55.26.26.02.04-.02.11,0,.13Z"/>
  <path class="st7" d="M44.94,29.14c.18.16.2.49.38.64-.07-.33.06-.45.38-.38,0-.53-.9-.62-1.26-.39.07-.33-.06-.45-.38-.38-.09.56.47.47.89.51Z"/>
  <path class="st7" d="M45.7,43.04c-.31-.04-.54-.13-.63-.38.2.02.09-.36,0-.13-.09.23-.2.14-.38.13,0,.67.63.71,1.01.38Z"/>
  <path class="st7" d="M45.57,24.43c-.49-.2.13-1.36-.51-1.66.11.58-.06.78.25,1.02-.13.13-.47.04-.38.38.09.35.59.49.63.26Z"/>
  <path class="st7" d="M45.19,43.93c-.16.05-.05.21.13.13.18-.09.18-.22,0-.13h-.13Z"/>
  <path class="st7" d="M45.07,22.52c-.31-.38-.22-.36-.63-.13-.18-.4.3-.77,0-.89-.05.11-.14.16-.26.13.04.58.04,1.15-.38,1.28.34-.09.26.26.51.26-.11-.66.7-.47.76-.64Z"/>
  <path class="st7" d="M44.18,31.45c.29-.56.59.29.89-.27-.34.11.09-.6-.26-.51.18.78-.97.18-.63.78Z"/>
  <path class="st7" d="M44.69,24.43c-.11.27-.25.51-.63.51.25.6-.65.69-.26,1.02,0-.08.04-.13.13-.13.08,0,.13.04.13.13-.02.24-.42.09-.38.39.86-.04.07-1,.76-1.28.02.24.07.44.25.51.09-.38-.13-.45-.13-.77.31.2.36-.43.13-.38Z"/>
  <path class="st7" d="M44.06,9.26c.2,0,.09.33.38.26.29-.07-.42-.49-.38-.26Z"/>
  <path class="st7" d="M43.8,15.75c.11-.18.11-1,0-.77-.11.24-.43.24-.38.64.14,0,.27.05.38.13ZM43.68,15.49c.05-.05.16.09.13.13-.04.03-.16-.09-.13-.13Z"/>
  <path class="st7" d="M43.8,14.73c.42.06.13.82.51.9,0-.15-.04-.27-.13-.39.02-.18.2-.22.26-.38-.42-.02-.09-.22-.26-.64-.42-.11-.18.42-.38.51Z"/>
  <path class="st7" d="M44.06,32.85c.04-.45.34.44.38,0-.07-.02-.17-.02-.13-.13s.07-.47-.25-.64c.18.36-.34.64,0,.76Z"/>
  <path class="st7" d="M43.68,8.62c-.45.04-.65,0-.76.13.18.24.67.35.76-.13Z"/>
  <path class="st7" d="M43.3,34.64c-.02-.33-.23-.4,0-.64-.63,0-.2.44,0,.64Z"/>
  <path class="st7" d="M42.67,16.64c-.34.4.38-.34,0,0Z"/>
  <path class="st7" d="M42.79,33.1c0-.09-.01-.19-.05-.27l-.07.15c0,.07.02.15.13.13Z"/>
  <path class="st7" d="M42.54,45.86s-.23.11-.13.26c.11.15.42-.75.13-.26Z"/>
  <path class="st7" d="M42.29,6.96c-.11-.49.58-.82,0-1.02.23.6-.56.84,0,1.02Z"/>
  <path class="st7" d="M41.28,14.98l.13-.26s.18.02.13-.13c-.64-.07-.49.51-.26.38Z"/>
  <path class="st7" d="M41.4,48.02c-.34.39.38-.34,0,0Z"/>
  <path class="st7" d="M41.15,47.39c-.34.39.38-.34,0,0Z"/>
  <path class="st7" d="M40.39,24.94c.02.15-.02.36.13.38.15.02.04-.29.26-.26s.18.35.26.13c-.24-.06-.24-.36-.64-.26Z"/>
  <path class="st7" d="M39.51,11.42v.64c.58-.24.18.51.64.38-.11-.33-.16-.67-.13-1.02.2-.2.87.15.64-.13-.31.02-.4-.2-.64-.26.13.42-.18.42-.51.39Z"/>
  <path class="st7" d="M40.14,12.69c.02.17-.42.47-.13.51.29.04.61-.36.13-.51Z"/>
  <path class="st7" d="M39.89,18.82c-.07-.11-.11.22-.13.26-.18.36.23-.13.13-.26Z"/>
  <path class="st7" d="M39.51,13.2c-.38-.34.34.38,0,0Z"/>
  <path class="st7" d="M39.38,24.05c-.07.04-.11.09-.09.15.02.05.79-.04.34-.28-.11-.07-.22.11-.26.13Z"/>
  <path class="st7" d="M39.38,24.3s-.07-.07-.09-.11c0,.04.02.07.09.11Z"/>
  <path class="st7" d="M39.26,27.1c.2.02.09-.36,0-.13-.09.24-.16.56-.13,1.15-.15.2-.44.55,0,.64-.04-.29.04-.47.25-.51-.13-.38-.17-.76-.13-1.15Z"/>
  <path class="st7" d="M38.63,27.99c-.38-.35.34.4,0,0Z"/>
  <path class="st7" d="M38.63,18.95c-.71-.02-.11-.85-.26-.89-.26.36-.47-.39-.89-.26.06.65.22,1.31.76,1.78-.02-.55.2,0,.38,0-.09-.38-.42-.38,0-.64ZM37.86,18.31c.34.39-.38-.36,0,0Z"/>
  <path class="st7" d="M37.74,25.95c.04.35.68,1.19.51.9-.18-.29-.2-.73-.51-.9Z"/>
  <path class="st7" d="M37.23,12.82c-.38-.35.34.38,0,0Z"/>
  <path class="st7" d="M37.23,21.37c-.54-.67.23.4,0,0Z"/>
  <path class="st7" d="M36.73,23.03c-.26-1.2-.96-2.44-1.01-3.44-.02.15-.13.2-.24.26-.16-.36-.14-.67.24-.38.03-.69.27-1.2-.36-1.4-.36.47.49.83-.25,1.02.14,1.06.9,1.53.89,2.8.43.18.2,1.06.74,1.15Z"/>
  <path class="st7" d="M36.6,25.7c0,.2-.31.11-.25.38.05.27.48-.42.25-.38Z"/>
  <path class="st7" d="M36.22,26.59c.07.22.41.58.25.26s-.29-.4-.25-.26Z"/>
  <path class="st7" d="M35.72,25.45q.27.15.14-.13c.36-.15-.2-.13-.14.13Z"/>
  <path class="st7" d="M35.86,24.94c-.41.16-.11-.42-.51-.26-.11.29.45.53.51.26Z"/>
  <path class="st7" d="M35.48,27.74s-.23.13-.13.26c.11.13.4-.75.13-.26Z"/>
  <path class="st7" d="M33.96,18.82c.23,0,.09.42.38.39.06-.39.54-.31.63-.64-.36-.11-.25.24-.51.26-.25.02-.48-.33-.51,0Z"/>
  <path class="st7" d="M34.22,23.03c.13.09.94.38.63.13-.06-.02-.1-.05-.13-.1s-.03-.1,0-.16c-.2.02-.47-.06-.51.13Z"/>
  <path class="st7" d="M34.72,25.83c-.38-.56-.38-.26,0,.13.02.11.09.15.25.13.17-.02-.05-.29-.25-.26Z"/>
  <path class="st7" d="M34.22,25.06c.15.02.07-.18,0,0Z"/>
  <path class="st7" d="M33.71,14.98c-.4-.34.34.4,0,0Z"/>
  <path class="st7" d="M33.46,17.28c-.07.26-.67.6-.38.79.05-.26.61-.66.38-.79Z"/>
  <path class="st7" d="M32.67,15.3c.1.03.2,0,.29-.06-.08-.08-.18-.15-.29-.2-.15-.06-.3-.14-.43-.22l-.04.13c.14.17.29.33.47.35Z"/>
  <path class="st7" d="M32.57,16.64s.04-.22.09-.33c.05-.11.02-.05.04-.05h-.04c-.07,0-.2.04-.22,0-.02-.04-.11-.4-.13-.13,0-.07.11.49.25.51Z"/>
  <path class="st7" d="M58.82,54.03s-.07-.18-.13-.13c-.06.05.05.2.13.13Z"/>
  <path class="st7" d="M58.68,54.73v-.05c-.23-.18-.11-.04,0,.05Z"/>
  <path class="st7" d="M58.44,53.14s-.07-.18-.13-.13c-.06.06.05.2.13.13Z"/>
  <path class="st7" d="M58.06,55.3s-.07-.18-.13-.13c-.05.06.05.2.13.13Z"/>
  <path class="st7" d="M57.31,53.9c.07,0,.14-.09,0-.13-.15-.04-.15.11,0,.13Z"/>
  <path class="st7" d="M56.42,53.01c0-.13.09-.14.13-.25s-.43.18-.13.25Z"/>
  <path class="st7" d="M55.79,56.7c.07,0,.14-.09,0-.13-.15-.04-.15.11,0,.13Z"/>
  <path class="st7" d="M55.79,58.5s-.07-.2-.13-.13c-.05.07.06.18.13.13Z"/>
  <path class="st7" d="M55.66,59.14c.34-.62-.41-.31,0,0Z"/>
  <path class="st7" d="M55.54,60.16s-.07-.2-.13-.13c-.06.07.05.18.13.13Z"/>
  <path class="st7" d="M55.54,61.94s-.07-.2-.13-.13c-.06.07.05.18.13.13Z"/>
  <path class="st7" d="M55.29,56.7s-.07-.18-.13-.13c-.05.06.06.2.13.13Z"/>
  <path class="st7" d="M55.03,58.5s-.05-.2-.13-.13.05.18.13.13Z"/>
  <path class="st7" d="M54.78,55.3s-.07-.18-.13-.13c-.05.06.06.2.13.13Z"/>
  <path class="st7" d="M54.53,56.32s-.05-.18-.13-.13c-.07.05.05.2.13.13Z"/>
  <path class="st7" d="M54.27,52.88c-.16.04-.07.15,0,.26.09,0,.13-.04.13-.13,0-.08-.04-.13-.13-.13Z"/>
  <path class="st7" d="M54.27,58.5s.06.18.13.13c.07-.06-.06-.2-.13-.13Z"/>
  <path class="st7" d="M54.15,57.08s-.05-.18-.13-.13c-.07.06.05.2.13.13Z"/>
  <path class="st7" d="M54.02,57.34c.07.02.15-.09,0-.13s-.15.11,0,.13Z"/>
  <path class="st7" d="M54.02,57.59s.05.2.13.15c.07-.06-.05-.2-.13-.15Z"/>
  <path class="st7" d="M54.02,57.99s-.05-.2-.13-.15c-.07.05.05.2.13.15Z"/>
  <path class="st7" d="M53.52,56.32c-.07,0-.15-.02-.13-.13h-.26c-.2.33.43.38.38.13Z"/>
  <path class="st7" d="M53.01,54.28s-.06-.18-.13-.13c-.07.05.05.2.13.13Z"/>
  <path class="st7" d="M52.89,53.9s-.06-.18-.13-.13c-.07.06.06.2.13.13Z"/>
  <path class="st7" d="M52.63,56.45s.05.2.13.13-.05-.18-.13-.13Z"/>
  <path class="st7" d="M52.63,56.95c-.13.02-.16.24,0,.26.16.02.18-.18,0-.26Z"/>
  <path class="st7" d="M52.38,52.11c.07,0,.14-.11,0-.13-.15-.02-.15.11,0,.13Z"/>
  <path class="st7" d="M52.13,52.24s-.05-.2-.13-.13.07.2.13.13Z"/>
  <path class="st7" d="M51.74,54.54c-.41-.31.31.44,0,0Z"/>
  <path class="st7" d="M51.62,60.16s.07.18.13.13c.06-.06-.05-.2-.13-.13Z"/>
  <path class="st7" d="M51.62,60.67s.07.18.13.13c.06-.05-.05-.2-.13-.13Z"/>
  <path class="st7" d="M51.24,56.32c.07,0,.15-.09,0-.13s-.15.11,0,.13Z"/>
  <path class="st7" d="M51.24,59.9c.08,0,.13-.04.13-.13s-.04-.13-.13-.13c-.15.02-.07.13,0,.26Z"/>
  <path class="st7" d="M51.24,62.96s.07.2.13.13c.06-.07-.05-.2-.13-.13Z"/>
  <path class="st7" d="M51.11,53.65s-.05-.18-.13-.13c-.07.06.07.2.13.13Z"/>
  <path class="st7" d="M51.11,55.17c-.02-.09,0-.23-.13-.26-.13-.02,0,.26.13.26Z"/>
  <path class="st7" d="M51.11,58.24s-.05-.2-.13-.13.07.18.13.13Z"/>
  <path class="st7" d="M51.11,59.39s-.05-.2-.13-.13.07.18.13.13Z"/>
  <path class="st7" d="M51.11,63.09s-.05-.2-.13-.13.07.2.13.13Z"/>
  <path class="st7" d="M50.86,53.39c.36-.6-.41-.31,0,0Z"/>
  <path class="st7" d="M50.86,63.34c.04.09,0,.26.13.26s0-.26-.13-.26Z"/>
  <path class="st7" d="M50.73,51.99c-.42-.31.31.44,0,0Z"/>
  <path class="st7" d="M50.86,55.3c-.16,0-.1-.22-.25-.26s-.43.54,0,.64c-.04-.23.18-.26.25-.38Z"/>
  <path class="st7" d="M50.73,63.98s.07.2.13.13c.06-.07-.05-.2-.13-.13Z"/>
  <path class="st7" d="M50.73,55.94h-.38c-.18.38.56.38.38,0Z"/>
  <path class="st7" d="M50.61,58.76c.07,0,.15-.11,0-.13-.15-.02-.15.09,0,.13Z"/>
  <path class="st7" d="M49.47,53.65c.03-.09.02-.26.13-.26.61.05.72-.39,1.01-.64-.23-.02-.09-.42-.38-.39-.29.04-.11.51-.38.26v.64c-.14-.31-.79.18-.38.39Z"/>
  <path class="st7" d="M50.48,53.26c-.09,0-.13.05-.13.13s.04.13.13.13c0-.15.18-.2,0-.26Z"/>
  <path class="st7" d="M50.48,54.03s.07.2.13.13c.05-.07-.06-.18-.13-.13Z"/>
  <path class="st7" d="M50.48,54.41c.04.11,0,.26.13.26s0-.26-.13-.26Z"/>
  <path class="st7" d="M50.61,59.39s-.06-.2-.13-.13c-.07.07.07.18.13.13Z"/>
  <path class="st7" d="M50.23,54.28c.02.15-.18.2,0,.26.08,0,.13-.04.13-.13,0-.08-.04-.13-.13-.13Z"/>
  <path class="st7" d="M50.23,56.83s.07.2.13.13c.06-.07-.05-.18-.13-.13Z"/>
  <path class="st7" d="M49.98,51.86s0-.06-.02-.09h-.07c.02.05.04.09.09.09Z"/>
  <path class="st7" d="M49.72,54.79s.07.2.13.13c.06-.07-.05-.18-.13-.13Z"/>
  <path class="st7" d="M49.72,56.83s.07.2.13.13c.06-.07-.05-.18-.13-.13Z"/>
  <path class="st7" d="M49.6,60.79s.07.18.13.13c.05-.06-.05-.2-.13-.13Z"/>
  <path class="st7" d="M49.34,61.3h.26v-.26h-.26v.26Z"/>
  <path class="st7" d="M49.47,53.9s-.06-.18-.13-.13c-.07.06.07.2.13.13Z"/>
  <path class="st7" d="M48.96,53.39s-.05-.18-.13-.13c-.07.06.07.2.13.13Z"/>
  <path class="st7" d="M48.71,52.24s-.05-.2-.13-.13.07.2.13.13Z"/>
  <path class="st7" d="M48.59,53.77s-.06-.18-.13-.13c-.07.05.07.2.13.13Z"/>
  <path class="st7" d="M48.08,58.5s-.06-.2-.13-.13c-.07.07.07.18.13.13Z"/>
  <path class="st7" d="M47.95,59.65c-.14.02-.07.13,0,.26.09,0,.13-.04.13-.13s-.04-.13-.13-.13Z"/>
  <path class="st7" d="M47.72,62.45v.39c.15-.02.34.02.36-.13.02-.15-.09-.33-.36-.26Z"/>
  <path class="st7" d="M47.72,62.07s-.07-.2-.13-.13c-.05.07.05.18.13.13Z"/>
  <path class="st7" d="M47.59,63.47c.02.15-.04.36.13.38.17.02.02-.36-.13-.38Z"/>
  <path class="st7" d="M47.45,56.32s-.05-.18-.1-.13c-.06.05.05.2.1.13Z"/>
  <path class="st7" d="M46.33,57.99s-.07-.2-.13-.15c-.05.05.06.2.13.15Z"/>
  <path class="st7" d="M46.08,56.7s-.07-.18-.13-.13c-.06.06.05.2.13.13Z"/>
  <path class="st7" d="M45.95,57.74c-.04-.11-.02-.26-.13-.26s0,.23.13.26Z"/>
  <path class="st7" d="M45.7,56.32s-.07-.18-.13-.13c-.06.05.05.2.13.13Z"/>
  <path class="st7" d="M45.57,56.7s-.07-.18-.13-.13c-.06.06.05.2.13.13Z"/>
  <path class="st7" d="M45.57,56.83c-.15.02-.27-.03-.38-.13-.02.32-.04.61.26.64.29.02.18-.24.13-.51Z"/>
  <path class="st7" d="M45.32,58.76s.06.18.13.13c.07-.06-.07-.2-.13-.13Z"/>
  <path class="st7" d="M45.32,53.26s-.07-.18-.13-.13c-.05.05.06.2.13.13Z"/>
  <path class="st7" d="M45.32,58.24s-.07-.2-.13-.13c-.05.07.06.18.13.13Z"/>
  <path class="st7" d="M45.07,56.57s-.07-.18-.13-.13c-.06.05.05.2.13.13Z"/>
  <path class="st7" d="M45.07,61.81s-.07-.2-.13-.13c-.06.07.05.18.13.13Z"/>
  <path class="st7" d="M44.81,62.58c.02.09,0,.26.13.26s0-.26-.13-.26Z"/>
  <path class="st7" d="M44.18,52.5c.02-.15.15-.07.26,0,.21-.22.07-.44,0-.73h-.44c-.01.12-.03.23-.07.34.79-.26-.09.18.25.39Z"/>
  <path class="st7" d="M44.44,56.06s.05.2.13.13-.07-.18-.13-.13Z"/>
  <path class="st7" d="M44.18,61.43h-.25v.26h.25v-.26Z"/>
  <path class="st7" d="M44.06,57.99s-.07-.2-.13-.15c-.06.05.05.2.13.15Z"/>
  <path class="st7" d="M43.8,60.03s.06.18.13.13c.07-.05-.07-.2-.13-.13Z"/>
  <path class="st7" d="M43.68,58.5c-.43-.31.31.42,0,0Z"/>
  <path class="st7" d="M43.68,59.78s.05.18.13.13c.07-.05-.07-.2-.13-.13Z"/>
  <path class="st7" d="M43.17,53.14c-.02.44-.26.67.13.89.11-.34.43-.73-.13-.89Z"/>
  <path class="st7" d="M43.42,56.45s-.07-.18-.13-.13c-.05.06.06.2.13.13Z"/>
  <path class="st7" d="M43.42,58.24c-.65.07.22-.54-.25-.65-.18.29-.54.8-.26,1.16-.09.02-.25,0-.25.13.43.22-.36.93.25,1.02,0-.72.26-1.2.51-1.66Z"/>
  <path class="st7" d="M43.05,53.01s-.06-.18-.13-.13c-.07.06.06.2.13.13Z"/>
  <path class="st7" d="M42.79,53.39s.06.2.13.13c.07-.07-.05-.18-.13-.13Z"/>
  <path class="st7" d="M42.54,58.38s.05.18.13.13c.07-.05-.06-.2-.13-.13Z"/>
  <path class="st7" d="M42.41,61.43s.06.18.13.13c.07-.05-.06-.2-.13-.13Z"/>
  <path class="st7" d="M42.41,61.94s.06.18.13.13c.07-.06-.06-.2-.13-.13Z"/>
  <path class="st7" d="M42.41,55.81c.01-.21-.07-.39-.25-.51.04.23-.13.64.25.51Z"/>
  <path class="st7" d="M42.41,56.45c-.04-.09,0-.24-.13-.26-.13-.02,0,.26.13.26Z"/>
  <path class="st7" d="M42.16,62.19c-.13.11-.27.82,0,.9s.27-.82,0-.9Z"/>
  <path class="st7" d="M41.91,61.94c.26-.15.42-1.02.13-1.28-.17.88-.44,1.42-.51,2.17.45.02.57-.66.38-.89Z"/>
  <path class="st7" d="M41.91,63.21s0,.04.02.05h.07s-.04-.05-.09-.05Z"/>
  <path class="st7" d="M41.4,62.96s-.06.09-.07.15l.31.07c-.04-.11-.11-.19-.23-.22Z"/>
  <path class="st7" d="M41.28,53.39c-.02-.09,0-.26-.13-.26s0,.26.13.26Z"/>
  <path class="st7" d="M40.65,59.52c.05-.55.4-.69,0-1.15.13.42-.38.85,0,1.15Z"/>
  <path class="st7" d="M40.52,59.65c.04.09,0,.24.13.26.13.02,0-.26-.13-.26Z"/>
  <path class="st7" d="M40.52,61.18c-.02-.24.13-.64-.25-.51-.04.29.04.47.25.51Z"/>
  <path class="st7" d="M40.27,51.99s-.05-.2-.13-.13.05.2.13.13Z"/>
  <path class="st7" d="M39.89,51.99s-.05-.2-.13-.13.07.2.13.13Z"/>
  <path class="st7" d="M39.89,52.5s-.05-.18-.13-.13c-.07.06.07.2.13.13Z"/>
  <path class="st7" d="M39.64,52.76s-.06-.18-.13-.13c-.07.06.07.2.13.13Z"/>
  <path class="st7" d="M39.38,52.5s-.05-.18-.13-.13c-.07.06.07.2.13.13Z"/>
  <path class="st7" d="M39.26,53.39c.01-.14.05-.27.13-.39h-.25c-.15.18-.13.31.13.39Z"/>
  <path class="st7" d="M39.13,54.41s-.06-.18-.13-.13.07.2.13.13Z"/>
  <path class="st7" d="M38.75,53.65c.04.38-.29.4-.26.76.36.09.54-.64.26-.76Z"/>
  <path class="st7" d="M38.49,51.86s.03-.06,0-.09h-.13c.02.05.09.15.13.09Z"/>
  <path class="st7" d="M57.56,53.14c-.4-.34.34.38,0,0Z"/>
  <path class="st7" d="M54.15,55.81c-.34.4.38-.34,0,0Z"/>
  <path class="st7" d="M52,55.81c-.16-.64.38-.13.38-.38s-.15-.09-.13-.26c.14,0,.27.05.38.13-.18-.29.32-.47,0-.51-.02.15-.2.15-.38.13-.04.36-.85.67-.25.89Z"/>
  <path class="st7" d="M52.25,57.59c.27-.02.4.11.38.4-.18-.02-.49.02-.25.13.14,0,.26-.05.38-.13v-.51c-.31-.02-.4-.26-.51.11Z"/>
  <path class="st7" d="M51.87,57.74c-.38-.36.34.38,0,0Z"/>
  <path class="st7" d="M51.49,52.5c-.07-.11-.11.23-.13.26-.18.36.23-.13.13-.26Z"/>
  <path class="st7" d="M50.99,55.68c.16,0,.13.23.25.26.13.02.31-.6,0-.64-.02.16.02.36-.13.38-.15.02-.09-.15-.13,0Z"/>
  <path class="st7" d="M50.61,63.21c-.38-.34.34.38,0,0Z"/>
  <path class="st7" d="M50.35,53.77c-.38-.34.34.4,0,0Z"/>
  <path class="st7" d="M47.95,61.3c.38.15.56-.55.26-.64-.36.89.13-1.04-.38-.51.36.2-.05.69-.11.89-.05.2.29.04.23.26Z"/>
  <path class="st7" d="M46.08,58.76c-.29.17-.49-.34-.51,0,.07,0,.15.02.13.13-.02.11-.16.34,0,.38s.13-.2.26-.26c.13-.05.09.15.13,0s-.16-.02-.13-.13.14-.02.13-.13Z"/>
  <path class="st7" d="M45.07,55.68c-.4-.34.34.4,0,0Z"/>
  <path class="st7" d="M43.68,55.17c.4.04.45-.55.26-.77.18-.02.47.06.51-.13-.21.04-.34-.05-.38-.26.2,0,.07-.34.25-.38.18-.04.15.36.38.38.34-.29.22-.56-.13-.77.31-.07-.38-.2-.13-.64-.47-.09-.27.49-.64.51,0-.07-.11-.15-.13,0s.15.62.13.64c-.02.02-.25-.02-.25,0-.06.42.25.77.13,1.4Z"/>
  <path class="st7" d="M44.06,62.19c.2,0,.09.33.38.26.29-.07-.42-.49-.38-.26Z"/>
  <path class="st7" d="M42.04,54.16c-.09-.35.59.09.51-.26-.09-.02-.26,0-.26-.13-.07-.49.36-1.09.13-1.66.56.09-.1-.26.26-.26h.25c-.14.39-.13.8.38,1.02-.04-.23.18-.71.18-1.11h-.09l.03.09c-.12,0-.23-.03-.34-.09h-.89c.04.16.07.31.09.47h-.25c.27.72-.07,1.11.13,1.66-.15.04-.31.22-.13.26Z"/>
  <path class="st7" d="M43.68,61.56c-.45.04-.65,0-.76.13.18.23.67.34.76-.13Z"/>
  <path class="st7" d="M42.67,54.41c-.13-.38-.9.11-.13,0,.02.2.32.11.25.39-.47-.31-.05.27.13.38.2-.34.34-.93-.13-1.02-.04.1,0,.25-.13.25Z"/>
  <path class="st7" d="M42.54,55.43c.19-.02.32.07.38.26-.16.23-.43.34-.38.77.56.16.29-.57.88-.39.11-.4-.32-.26-.38-.51.36-.07-.2-.2-.13-.38-.14.06-.27.15-.38.26Z"/>
  <path class="st7" d="M42.67,56.95c-.02.33-.02.62.25.64.02-.4.51-.33.38-.89-.27-.07-.65-.24-.63.13.02.36.42-.38.51,0s-.26.38-.51.13Z"/>
  <path class="st7" d="M42.29,59.9c-.11-.49.58-.82,0-1.02.23.6-.56.83,0,1.02Z"/>
  <path class="st7" d="M41.28,53.9h-.13c0-.06.14-.24.13-.26-.2-.31-.38.8,0,.26Z"/>
  <path class="st7" d="M39.13,54.79c.25.31.25,0,0-.13-.26-.13-.45.22,0,.13Z"/>
  <g class="st5">
    <path class="st4" d="M65.57,16.06h2.82v-.13h-2.82v-5.02h1.34l-.17-.13h-1.17v-.91l-.13-.09v1h-5v-4.49l-.13-.06v4.55h-4.98v-5.04h3.76v-.07l-.13-.06h-3.63v-1.49h-.13v1.49h-5v-1.47h-.13v1.47h-4.98v-1.78h-.13v1.78h-4.98v-.13l-.13.05v.07h-.23l-.15.06v.07h.38v5.04h-5v-1.34l-.13.15v1.2h-1.08l-.13.13h1.21v5.02h-3.3l-.04.13h3.34v5.02h-3.7l.05.13h3.65v5.04h-1.96l.04.13h1.93v1.78l.13.06v-1.84h5v4.31l.13.07v-4.39h4.98v5.02h-2.03l-.05.13h2.08v5.04h-3.85v.13h3.85v5.02h-4.98v-.31h-.07l-.05.22v.09h-.04l-.04.13h.07v.26l.05.29h.07v-.55h4.98v5.04h-4.98v-.27h-.07l-.05.15v.15h-.07l-.04.13h.11v5.02h-2.15l-.05.13h2.2v5.04h-1.99l.04.13h1.95v5.02h-.76v.13h.74v.62l.13.04v-.66h5.01v2.09l.13.04v-2.15h4.98v2.4l.13-.06v-2.34h5v.62l.13-.04v-.58h1.32l.04-.13h-1.35v-5.02h2.94l.04-.13h-2.98v-5.04h3.34l-.04-.13h-3.3v-5.02h1.46l-.06-.13h-1.41v-1.23l-.13-.07v1.31h-5v-5.04h5v1.91h.07l.05-.28v-1.66h.27l.04-.13h-.31v-5.01h3.59l.14-.13h-3.73v-5.04h4.98v3.86l.13-.13v-3.73h3.72l.07-.13h-3.79v-5.02h5v3.02l.13-.2v-2.82h1.63l.04-.13h-1.66v-5.04h3.3l.04-.13h-3.34v-5.02ZM39.87,26.24h-5v-5.04h5v5.04ZM39.87,21.08h-5v-5.02h5v5.02ZM39.87,15.93h-5v-5.02h5v5.02ZM44.98,62.34h-4.98v-5.02h4.98v5.02ZM44.98,57.19h-4.98v-5.04h4.98v5.04ZM44.98,52.03h-4.98v-5.02h4.98v5.02ZM44.98,26.24h-4.98v-5.04h4.98v5.04ZM44.98,21.08h-4.98v-5.02h4.98v5.02ZM44.98,15.93h-4.98v-5.02h4.98v5.02ZM44.98,10.78h-4.98v-5.04h4.98v5.04ZM50.08,62.34h-4.98v-5.02h4.98v5.02ZM50.08,57.19h-4.98v-5.04h4.98v5.04ZM50.08,52.03h-4.98v-5.02h4.98v5.02ZM50.08,46.88h-4.98v-5.04h4.98v5.04ZM50.08,41.71h-4.98v-5.02h4.98v5.02ZM50.08,36.56h-4.98v-5.04h4.98v5.04ZM50.08,31.4h-4.98v-5.02h4.98v5.02ZM50.08,26.24h-4.98v-5.04h4.98v5.04ZM50.08,21.08h-4.98v-5.02h4.98v5.02ZM50.08,15.93h-4.98v-5.02h4.98v5.02ZM50.08,10.78h-4.98v-5.04h4.98v5.04ZM55.21,62.34h-5v-5.02h5v5.02ZM55.21,57.19h-5v-5.04h5v5.04ZM55.21,47.01v5.02h-5v-5.02h5ZM55.21,41.71h-5v-5.02h5v5.02ZM55.21,36.56h-5v-5.04h5v5.04ZM55.21,31.4h-5v-5.02h5v5.02ZM55.21,26.24h-5v-5.04h5v5.04ZM55.21,21.08h-5v-5.02h5v5.02ZM55.21,15.93h-5v-5.02h5v5.02ZM55.21,10.78h-5v-5.04h5v5.04ZM60.32,31.4h-4.98v-5.02h4.98v5.02ZM60.32,26.24h-4.98v-5.04h4.98v5.04ZM60.32,21.08h-4.98v-5.02h4.98v5.02ZM60.32,15.93h-4.98v-5.02h4.98v5.02ZM65.45,26.24h-5v-5.04h5v5.04ZM65.45,21.08h-5v-5.02h5v5.02ZM65.45,15.93h-5v-5.02h5v5.02Z"/>
  </g>
  <path class="st4" d="M41.56,31.4h-.1l-.02.07.07.04.07-.04-.02-.07Z"/>
  <path class="st2" d="M48.01,60.76c-1.46-.04-3.29-.07-4.79-1.29l-.16-.14c-1.6-1.73-1.53-3.57-1.26-5.44.02-1.22.23-2.95,1.8-4.22.92-1.13,2.17-2.6,4.44-2.6h.36c1.93.2,3.45,1.47,4.22,2.24,1.82,1.4,1.82,3.04,1.84,4.47v.11c.07,1.8-.04,3.68-1.45,5.2l-.11.11c-1.58,1.42-3.19,1.55-4.71,1.55l-.2.02ZM48.1,46.8c-1.01,0-1.79-.6-2.69-1.38-.91-.78-1.19-1.69-1.1-2.66.01-.18.01-.35,0-.53-.11-2.75.72-4.7,1.46-6.41l.29-.67c.58-1.56,1.18-3.18,2.1-4.39.16-.36.32-.77.48-1.2.4-.98.83-2.11,1.7-3.04.22-.33.46-.65.72-.94.52-.66.99-1.26,1.19-1.93.04-.16.11-.31.2-.45.64-.96.76-2.33.76-4.18v-.07c.05-.98-.22-1.73-.53-2.6l-.09-.23c-.4-.89-.78-1.58-1.33-2.09l-.17-.15c-.11-.03-.22-.05-.34-.04-.43.02-.86.07-1.28.15l-.29.04h-.11c-.38-.05-.75-.13-1.12-.23l-.65-.17c-.64.28-.87.46-1.18.8s-.45.66-.63.91-.05.05-.07.07l.06.11.27.4c.44.39.8.84,1.08,1.35.78.74,1.1,1.91.9,3.13-.06,1.56-.34,3.16-1.95,4.36-.95.8-2.11,1.66-3.73,1.66l-.56-.04c-2.01-.07-3.54-.78-4.82-2.26l-.09-.11c-.97-1.33-1.46-3.15-1.34-5.01.13-1.85.6-3.64,1.41-5.18.09-.15.2-.29.32-.42.3-.3.58-.61.85-.94.61-.78,1.41-1.73,2.76-2.42,1.47-.76,3-1.32,4.6-1.69h.06c.46-.09.92-.13,1.39-.13.69.02,1.36.07,2.04.16.45.07.91.12,1.37.13h.94l.83-.04,1.16-.04c.57-.02,1.14.05,1.7.2,1.32.06,2.31.62,3.12,1.09.31.2.63.36.97.49.14.04.26.09.38.17l.87.51c1.15.68,2.26,1.31,3.27,2.73.03,0,.04.02.04.04,1.19,1.79,1.49,4.24,1.53,5.97s-.59,2.88-1.11,4c-.18.39-.36.8-.51,1.18-.03.09-.07.18-.13.26-.16.29-.34.6-.52.95-.53,1.02-1.12,2.15-2.06,2.98-.04.05-.08.08-.13.11-.41.34-.79.72-1.14,1.13-.56.64-1.21,1.36-2.04,1.86-.51.47-.99,1-1.49,1.55-.51.54-1.01,1.07-1.61,1.64-.59.56-.67.64-.99.93-.61.56-1.12,1-1.43,1.58-.45,1.47-.67,2.78-.63,4.04.03,1.26,0,1.82-.38,2.57-.08.15-.16.3-.22.45-.61,1.71-1.75,1.96-2.36,1.96Z"/>
  <path class="st3" d="M46.3,8.55h.29s.05-.04.07-.07c-.43-.36-.49-.07-.36.07Z"/>
  <path class="st3" d="M45.97,8.47s-.15.02-.18.07h.2s0-.05-.02-.07Z"/>
  <path class="st3" d="M51.66,8.55h.18s-.02-.02-.02-.04l-.79.04h.63Z"/>
  <path class="st3" d="M50.27,8.55h.02s0,0-.02,0Z"/>
  <path class="st3" d="M49.36,8.55s.04-.04.04-.07h-.02c-.07.01-.15,0-.21-.02l-.49-.07c-.64-.09-1.29-.15-1.93-.16l.47.33h2.15Z"/>
  <path class="st3" d="M50.08,8.55l.04-.04h-.4s0,.04.02.04h.34Z"/>
  <path class="st3" d="M53.32,8.55h.45c-.15-.02-.3-.02-.45,0Z"/>
  <path class="st3" d="M45.27,8.33h-.13c.05.09.11.15.13,0Z"/>
  <path class="st3" d="M52.36,8.55h.4c-.13-.09-.27-.09-.4,0Z"/>
  <path class="st3" d="M43.9,8.69l-.13.04s.09.04.13-.04Z"/>
  <path class="st3" d="M45.63,8.82c0-.11-.14-.2-.18,0-.04.2.14.18.18,0Z"/>
  <path class="st3" d="M50.95,8.82c-.03-.08-.08-.13-.17-.13s-.15.04-.17.13c.04.2.18.09.34,0Z"/>
  <path class="st3" d="M51.8,8.82c.05.04.27-.09.18-.18-.09-.09-.27.09-.18.18Z"/>
  <path class="st3" d="M44.94,8.82c-.06-.05-.27.07-.18.17.09.09.27-.09.18-.17Z"/>
  <path class="st3" d="M46.31,9.15c.04.06.26-.07.16-.16-.09-.09-.25.09-.16.16Z"/>
  <path class="st3" d="M48.71,8.98c-.31.09-1.01-.2-1.03.16.38.09.92.4,1.03-.16Z"/>
  <path class="st3" d="M50.61,9.15c-.06-.04-.27.09-.18.18.09.09.26-.09.18-.18Z"/>
  <path class="st3" d="M48.53,9.33c-.51.36-.7,1.15-.16,1.38.23-.51-.09-.74.51-1.04-.21,0-.15-.31-.34-.34Z"/>
  <path class="st3" d="M56.94,9.49c.09,0,.18-.03.27-.05l-.14-.07c-.07.02-.13.05-.13.13Z"/>
  <path class="st3" d="M41.85,10.53c.11-.12.16-.26.16-.43s-.05-.3-.16-.43c-.31.09-.72.09-.86.35.54-.09.45.45.86.51Z"/>
  <path class="st3" d="M49.4,9.84c.05.05.25-.07.16-.17-.09-.09-.26.09-.16.17Z"/>
  <path class="st3" d="M49.92,9.84c.04.05.26-.07.16-.17-.09-.09-.25.09-.16.17Z"/>
  <path class="st3" d="M50.43,10.36c.33-.02.58-.11.69-.34-.43-.09-.67-.29-.69.34Z"/>
  <path class="st3" d="M56.44,10.02c-.05-.06-.27.07-.18.16.09.09.27-.07.18-.16Z"/>
  <path class="st3" d="M45.45,10.18s-.26.09-.17.18c.09.09.26-.09.17-.18Z"/>
  <path class="st3" d="M51.3,10.36s.25-.09.16-.18c-.09-.09-.26.09-.16.18Z"/>
  <path class="st3" d="M42.88,10.88c-.34-.07-.14-.66-.68-.51,0,.19-.06.36-.18.51.11.11.81.4.86,0Z"/>
  <path class="st3" d="M49.06,10.53c0,.11.15.2.16,0,.02-.2-.13-.18-.16,0Z"/>
  <path class="st3" d="M54.72,10.53c-.05-.03-.27.09-.18.18.09.09.27-.09.18-.18Z"/>
  <path class="st3" d="M52.67,10.71c-.15.04-.34,0-.34.17s.33,0,.34-.17Z"/>
  <path class="st3" d="M54.38,10.71c-.14.04-.34,0-.34.17s.33,0,.34-.17Z"/>
  <path class="st3" d="M47.85,11.06c.05.04.27-.09.18-.18-.09-.09-.25.09-.18.18Z"/>
  <path class="st3" d="M49.4,11.06c.05.04.25-.09.16-.18-.09-.09-.26.09-.16.18Z"/>
  <path class="st3" d="M56.26,10.88s-.26.09-.17.18c.09.09.26-.09.17-.18Z"/>
  <path class="st3" d="M45.28,11.06c-.14.04-.34,0-.34.16s.34,0,.34-.16Z"/>
  <path class="st3" d="M45.45,11.4c.14-.04.34-.02.34-.18s-.32,0-.34.18Z"/>
  <path class="st3" d="M56.09,11.4c0-.11-.14-.2-.18,0-.04.2.15.18.18,0Z"/>
  <path class="st3" d="M52.14,11.57c.13-.04.34,0,.34-.17s-.34,0-.34.17Z"/>
  <path class="st3" d="M53.86,11.4c-.06-.05-.26.07-.16.17.09.09.25-.07.16-.17Z"/>
  <path class="st3" d="M44.42,11.57c-.13.04-.32,0-.34.18-.02.18.34-.02.34-.18Z"/>
  <path class="st3" d="M48.03,11.75c.13-.04.34-.02.34-.18s-.34,0-.34.18Z"/>
  <path class="st3" d="M54.2,11.75c.05.03.27-.09.18-.18-.09-.09-.27.09-.18.18Z"/>
  <path class="st3" d="M38.93,11.91c-.05-.04-.25.09-.18.18.07.09.27-.09.18-.18Z"/>
  <path class="st3" d="M46.13,11.91s-.25.09-.16.18c.09.09.26-.09.16-.18Z"/>
  <path class="st3" d="M47.85,12.09c.05.04.27-.09.18-.18-.09-.09-.25.09-.18.18Z"/>
  <path class="st3" d="M61.24,11.91c-.05-.04-.25.09-.18.18.07.09.27-.09.18-.18Z"/>
  <path class="st3" d="M47.34,12.26c.05.06.25-.07.16-.16-.09-.09-.26.07-.16.16Z"/>
  <path class="st3" d="M55.57,12.09c-.04-.06-.26.07-.16.16.09.09.25-.07.16-.16Z"/>
  <path class="st3" d="M45.79,12.44c.06.04.27-.09.18-.18-.09-.09-.27.09-.18.18Z"/>
  <path class="st3" d="M50.77,12.44c0,.09.15.18.18,0s-.15-.2-.18,0Z"/>
  <path class="st3" d="M39.61,12.44c-.05-.05-.25.07-.16.17.09.09.25-.07.16-.17Z"/>
  <path class="st3" d="M40.3,12.6c-.03-.08-.08-.13-.17-.13s-.15.04-.17.13c.04.22.2.11.34,0Z"/>
  <path class="st3" d="M37.38,12.97l-.2.23c.06.05.13.07.2.09.02-.11.02-.22,0-.32Z"/>
  <path class="st3" d="M56.44,12.79s.26-.09.17-.18c-.09-.09-.26.09-.17.18Z"/>
  <path class="st3" d="M61.58,12.79c-.03-.08-.08-.13-.17-.13s-.15.04-.17.13c.2-.02.27.23.34,0Z"/>
  <path class="st3" d="M44.26,12.79c-.06-.06-.27.07-.18.16.09.09.27-.09.18-.16Z"/>
  <path class="st3" d="M44.76,12.79c-.04-.06-.26.07-.16.16.09.09.25-.09.16-.16Z"/>
  <path class="st3" d="M46.13,12.95c-.41.58.58-.42,0,0Z"/>
  <path class="st3" d="M55.41,12.79c-.06-.06-.27.07-.18.16.09.09.27-.09.18-.16Z"/>
  <path class="st3" d="M47.85,13.13c.05.04.27-.09.18-.18-.09-.09-.25.09-.18.18Z"/>
  <path class="st3" d="M44.42,13.29c.05.06.27-.09.18-.16-.09-.07-.27.07-.18.16Z"/>
  <path class="st3" d="M57.81,13.29c-.42.58.58-.42,0,0Z"/>
  <path class="st3" d="M53.35,13.29c-.06-.05-.27.09-.18.17s.27-.07.18-.17Z"/>
  <path class="st3" d="M55.41,13.29c-.06-.05-.27.09-.18.17s.27-.07.18-.17Z"/>
  <path class="st3" d="M41.67,13.64c.06.05.27-.09.18-.18-.09-.09-.27.09-.18.18Z"/>
  <path class="st3" d="M48.03,13.46c0,.11,0,.22.02.33l.32.09c-.03-.21-.14-.35-.34-.42Z"/>
  <path class="st3" d="M54.2,13.64c0-.09-.15-.2-.17,0-.02.2.13.2.17,0Z"/>
  <path class="st3" d="M37.38,13.8c.06.06.27-.07.18-.16-.09-.09-.25.09-.18.16Z"/>
  <path class="st3" d="M45.97,13.64c-.15.04-.34,0-.34.16s.34,0,.34-.16Z"/>
  <path class="st3" d="M62.09,14.33c-.16-.33.53-.58,0-.69-.04.11-.42.66,0,.69Z"/>
  <path class="st3" d="M53.86,13.8c-.06-.04-.26.09-.16.18.09.09.25-.09.16-.18Z"/>
  <path class="st3" d="M63.3,13.8c-.05-.04-.25.09-.16.18.09.09.26-.09.16-.18Z"/>
  <path class="st3" d="M38.59,13.98c-.06-.05-.26.07-.18.17.07.09.27-.07.18-.17Z"/>
  <path class="st3" d="M45.28,14.15c0,.18.29.21.34,0,.06-.22-.27-.24-.34,0Z"/>
  <path class="st3" d="M52.67,14.15c.04.05.25-.07.16-.17-.09-.09-.25.07-.16.17Z"/>
  <path class="st3" d="M60.21,14.15c-.2.02-.27-.24-.34,0,.03.08.08.13.17.13s.14-.04.17-.13Z"/>
  <path class="st3" d="M60.72,13.98c-.04-.05-.26.07-.16.17.09.09.25-.07.16-.17Z"/>
  <path class="st3" d="M39.8,14.15c-.06-.04-.27.09-.18.18.09.09.26-.09.18-.18Z"/>
  <path class="st3" d="M52.14,14.33c.06.03.27-.09.18-.18-.09-.09-.27.09-.18.18Z"/>
  <path class="st3" d="M55.41,14.15c-.15.05-.34.02-.34.18s.32,0,.34-.18Z"/>
  <path class="st3" d="M56.94,14.15s-.25.09-.16.18c.09.09.26-.09.16-.18Z"/>
  <path class="st3" d="M38.93,14.49c.06.05.26-.07.18-.16-.07-.09-.27.07-.18.16Z"/>
  <path class="st3" d="M45.79,14.49c.06.05.27-.07.18-.16-.09-.09-.27.07-.18.16Z"/>
  <path class="st3" d="M59.53,14.68c.09-.09,0-.34-.18-.18-.18.16,0,.36.18.18Z"/>
  <path class="st3" d="M39.96,14.49c-.05-.04-.26.09-.16.18.09.09.25-.09.16-.18Z"/>
  <path class="st3" d="M54.38,14.68c-.14.04-.34,0-.34.16s.33,0,.34-.16Z"/>
  <path class="st3" d="M58.32,15.53c.11-.11.42-.82,0-.85-.09.11-.4.82,0,.85Z"/>
  <path class="st3" d="M52.14,15.02c.06.04.27-.09.18-.18-.09-.09-.27.09-.18.18Z"/>
  <path class="st3" d="M52.67,14.84c-.05-.04-.27.09-.18.18.09.09.27-.09.18-.18Z"/>
  <path class="st3" d="M55.23,14.84s-.25.09-.16.18c.09.09.25-.09.16-.18Z"/>
  <path class="st3" d="M59.53,15.71c-.02-.33-.11-.58-.34-.69.04.31-.18.85.34.69Z"/>
  <path class="st3" d="M39.45,15.71c.13-.04.32-.02.34-.18.02-.16-.34,0-.34.18Z"/>
  <path class="st3" d="M61.24,16.06c-.05-.05-.25.07-.18.17.07.09.27-.07.18-.17Z"/>
  <path class="st3" d="M53.01,16.22c-.13.04-.27.02-.33.11,0,.02,0,.04.02.05.13-.02.29,0,.31-.16Z"/>
  <path class="st3" d="M53.17,16.41c0,.09.15.18.18,0,.04-.18-.15-.2-.18,0Z"/>
  <path class="st3" d="M44.6,16.75c0-.11-.15-.2-.18,0s.15.18.18,0Z"/>
  <path class="st3" d="M46.31,16.75c-.05-.05-.27.07-.18.17.09.09.27-.09.18-.17Z"/>
  <path class="st3" d="M56.44,16.75c-.05-.05-.27.07-.18.17.09.09.27-.09.18-.17Z"/>
  <path class="st3" d="M62.61,17.6c-.02-.44-.31-.6-.53-.85,0,.33-.45.22-.34.67.54-.18.47-.07.87.18Z"/>
  <path class="st3" d="M43.73,17.09c.15-.05.34-.02.34-.18s-.34,0-.34.18Z"/>
  <path class="st3" d="M63.14,16.92c-.05-.06-.27.09-.18.18.09.09.25-.09.18-.18Z"/>
  <path class="st3" d="M60.9,17.77c.22-.22.23-.64-.18-.68.04.26-.06.62.18.68Z"/>
  <path class="st3" d="M63.64,17.09c-.05-.05-.25.07-.16.17.09.09.26-.09.16-.17Z"/>
  <path class="st3" d="M40.3,17.26c-.06-.06-.26.09-.16.16.09.07.25-.07.16-.16Z"/>
  <path class="st3" d="M44.42,17.42c.05.06.27-.07.18-.16-.09-.09-.27.09-.18.16Z"/>
  <path class="st3" d="M54.2,17.26c-.06-.06-.26.09-.17.16.09.07.26-.07.17-.16Z"/>
  <path class="st3" d="M58.32,17.42c.15-.04.34,0,.34-.16s-.33,0-.34.16Z"/>
  <path class="st3" d="M61.4,17.26c-.03-.06-.25.09-.16.16.09.07.26-.07.16-.16Z"/>
  <path class="st3" d="M64.51,17.42s.09,0,.14-.04c.06-.04-.02-.09-.04-.13-.02-.04-.18.11-.1.16Z"/>
  <path class="st3" d="M54.04,17.95c0-.09-.14-.2-.18,0-.04.2.14.2.18,0Z"/>
  <path class="st3" d="M56.94,17.95c.06.05.27-.09.18-.18-.09-.09-.27.09-.18.18Z"/>
  <path class="st3" d="M39.8,18.46c.04.55-.51-.43-.53.18.11.33,1.12.11.53-.18Z"/>
  <path class="st3" d="M44.26,18.46c-.06-.04-.27.09-.18.18.09.09.27-.09.18-.18Z"/>
  <path class="st3" d="M45.97,18.64c-.05-.05-.27.07-.18.17.09.09.27-.07.18-.17Z"/>
  <path class="st3" d="M61.06,18.64c-.2.02-.49-.04-.51.17-.02.2.48.04.51-.17Z"/>
  <path class="st3" d="M61.93,18.64c-.13.04-.34,0-.34.17s.34,0,.34-.17Z"/>
  <path class="st3" d="M53.52,20.54c.05-.46-.05-.89-.31-1.28,0,.31,0,.62-.02.91.08.15.18.27.33.36Z"/>
  <path class="st3" d="M44.26,19.15c0,.11.13.2.16,0,.04-.2-.13-.18-.16,0Z"/>
  <path class="st3" d="M59.34,18.99c-.11-.02-.22,0-.32.07s-.16.16-.19.27c.26.02.43-.09.51-.34Z"/>
  <path class="st3" d="M44.76,19.33c.05.04.27-.09.18-.18-.09-.09-.27.09-.18.18Z"/>
  <path class="st3" d="M53.86,19.33c-.2.02-.27-.26-.34,0,.03.08.08.13.17.13s.14-.04.17-.13Z"/>
  <path class="st3" d="M43.91,19.33c-.05-.05-.27.07-.18.17.09.09.27-.07.18-.17Z"/>
  <path class="st3" d="M38.93,19.5c-.05-.04-.25.09-.18.18.07.09.27-.09.18-.18Z"/>
  <path class="st3" d="M43.39,19.68c.05.04.27-.09.18-.18-.09-.09-.27.09-.18.18Z"/>
  <path class="st3" d="M44.6,19.68c.13-.04.34-.02.34-.18s-.34.02-.34.18Z"/>
  <path class="st3" d="M41.85,19.84c.04.05.25-.07.16-.17-.09-.09-.25.07-.16.17Z"/>
  <path class="st3" d="M57.29,20.37h.34c-.02-.27.07-.64-.16-.69.05.33-.23.35-.34.51-.11.17.2.04.16.18Z"/>
  <path class="st3" d="M38.41,19.84s-.26.09-.16.18c.09.09.25-.09.16-.18Z"/>
  <path class="st3" d="M60.03,20.37h.34c.2-.26.2-.42-.16-.53,0,.19-.07.37-.18.53Z"/>
  <path class="st3" d="M61.58,20.03c.23-.04.53.69.69.16-.23.04-.53-.69-.69-.16Z"/>
  <path class="st3" d="M39.61,20.03c-.05-.06-.25.07-.16.16.09.09.25-.07.16-.16Z"/>
  <path class="st3" d="M42.7,20.03c.01.19-.05.36-.16.51h.51c-.02-.28.02-.6-.34-.51Z"/>
  <path class="st3" d="M55.07,20.19c.04.06.25-.07.16-.16-.09-.09-.25.07-.16.16Z"/>
  <path class="st3" d="M38.75,20.54c.02-.18-.07-.44-.16-.17-.09.28.09.44.16.17Z"/>
  <path class="st3" d="M39.96,20.37c.05.04.26-.09.18-.18-.07-.09-.27.09-.18.18Z"/>
  <path class="st3" d="M57.97,20.19s-.26.09-.16.18c.09.09.25-.09.16-.18Z"/>
  <path class="st3" d="M58.84,20.54c.04.05.26-.07.16-.17-.09-.09-.25.07-.16.17Z"/>
  <path class="st3" d="M35.5,20.72c.05.04.25-.09.16-.18-.09-.09-.25.09-.16.18Z"/>
  <path class="st3" d="M37.38,20.54s-.25.09-.16.18c.09.09.26-.09.16-.18Z"/>
  <path class="st3" d="M39.45,20.88c0,.18.29.22.34,0,.05-.22-.27-.26-.34,0Z"/>
  <path class="st3" d="M39.96,20.88c.05.05.26-.09.18-.16-.07-.07-.27.07-.18.16Z"/>
  <path class="st3" d="M54.2,21.06c.27-.49-.74-.49-.69-.18.32-.04.38.2.69.18Z"/>
  <path class="st3" d="M63.98,20.88c.05.05.26-.09.18-.16-.07-.07-.27.07-.18.16Z"/>
  <path class="st3" d="M42.88,21.06c0,.09.13.18.17,0s-.13-.2-.17,0Z"/>
  <path class="st3" d="M58.49,20.88c-.05-.06-.27.09-.18.18.09.09.27-.09.18-.18Z"/>
  <path class="st3" d="M61.93,21.06c0-.11-.15-.2-.18,0-.04.2.15.18.18,0Z"/>
  <path class="st3" d="M37.21,21.06s.02.15,0,.16c-.05.12-.11.23-.18.35.2.26.79-.62.18-.51Z"/>
  <path class="st3" d="M40.82,21.22c.04.06.26-.09.17-.16-.09-.07-.26.07-.17.16Z"/>
  <path class="st3" d="M58.84,21.22c.13-.04.34,0,.34-.16s-.34,0-.34.16Z"/>
  <path class="st3" d="M46.31,21.39c.04.05.26-.07.16-.17-.09-.09-.25.09-.16.17Z"/>
  <path class="st3" d="M56.44,21.39c-.05.45.06.74.51.69-.45-.72.4-.29.53-.85-.53-.13-.63.18-1.03.17Z"/>
  <path class="st3" d="M41.51,21.57c.13-.04.32,0,.34-.18.02-.18-.34.02-.34.18Z"/>
  <path class="st3" d="M47.51,21.39c-.13.05-.33.02-.34.18-.02.16.34,0,.34-.18Z"/>
  <path class="st3" d="M61.4,21.57c.06.05.27-.09.18-.18-.09-.09-.25.09-.18.18Z"/>
  <path class="st3" d="M58.66,21.92c0,.09.14.2.18,0s-.14-.2-.18,0Z"/>
  <path class="st3" d="M64.17,22.08c.04.06.25-.07.16-.16-.09-.09-.26.09-.16.16Z"/>
  <path class="st3" d="M39.11,22.08c-.05-.03-.27.09-.18.18.09.09.26-.09.18-.18Z"/>
  <path class="st3" d="M62.96,22.08c-.13.06-.34.02-.34.18s.34,0,.34-.18Z"/>
  <path class="st3" d="M59.69,22.43h-.34c0,.18-.13.22-.16.34.27-.02.6.04.51-.34Z"/>
  <path class="st3" d="M61.24,22.61c.13-.04.34,0,.34-.18s-.34.02-.34.18Z"/>
  <path class="st3" d="M38.41,22.61c-.18.47-.32,1.49.18,1.73.25-.62.27-1.6-.18-1.73Z"/>
  <path class="st3" d="M44.42,22.77c.05.06.27-.07.18-.16-.09-.09-.27.07-.18.16Z"/>
  <path class="st3" d="M45.79,23.46c.06-.2.71-.66.18-.85-.05.2-.69.66-.18.85Z"/>
  <path class="st3" d="M58.66,22.61h-.34v.34h.34v-.34Z"/>
  <path class="st3" d="M42.88,22.77c-.05-.04-.27.09-.18.18.09.09.27-.09.18-.18Z"/>
  <path class="st3" d="M60.03,22.95c.15-.04.34,0,.34-.18s-.32.02-.34.18Z"/>
  <path class="st3" d="M61.06,23.12c.21-.02.48.04.52-.17.04-.2-.48-.04-.52.17Z"/>
  <path class="st3" d="M60.9,23.12c-.05-.04-.25.09-.18.18.07.09.27-.09.18-.18Z"/>
  <path class="st3" d="M62.79,23.12c-.05-.04-.27.09-.18.18.09.09.25-.09.18-.18Z"/>
  <path class="st3" d="M39.11,23.46c.04.05.26-.07.16-.16-.09-.09-.25.07-.16.16Z"/>
  <path class="st3" d="M40.3,23.46c.05.05.25-.07.18-.16-.07-.09-.27.07-.18.16Z"/>
  <path class="st3" d="M42.7,23.3c-.04-.06-.26.07-.16.16.09.09.25-.07.16-.16Z"/>
  <path class="st3" d="M53.7,23.46c-.07.11.07.18.16.18.54-.04.13-.73-.16-.18Z"/>
  <path class="st3" d="M40.65,23.46c-.53.58.63.53,0,0Z"/>
  <path class="st3" d="M61.93,23.46c-1.1-.2-.38.53,0,0Z"/>
  <path class="st3" d="M37.21,23.65c-.05-.06-.25.07-.18.16.07.09.27-.07.18-.16Z"/>
  <path class="st3" d="M43.22,23.99c0,.09.13.18.17,0,.03-.18-.13-.2-.17,0Z"/>
  <path class="st3" d="M43.91,23.99s.26-.09.16-.18c-.09-.09-.25.09-.16.18Z"/>
  <path class="st3" d="M56.94,23.99c.15-.04.34-.02.34-.18s-.34.02-.34.18Z"/>
  <path class="st3" d="M61.06,23.81c0,.11-.02.2-.17.18v.35c.42.26.51-.6.17-.53Z"/>
  <path class="st3" d="M42.7,24.16c.15-.04.34,0,.34-.17s-.34,0-.34.17Z"/>
  <path class="st3" d="M37.04,24.34c-.15-.15-.26-.2-.33-.18l.26.27.07-.09Z"/>
  <path class="st3" d="M56.09,24.16c-.05-.04-.27.09-.18.18.09.09.27-.09.18-.18Z"/>
  <path class="st3" d="M59.69,24.34c.06.04.27-.09.18-.18-.09-.09-.27.09-.18.18Z"/>
  <path class="st3" d="M37.21,24.5c.06.06.26-.07.16-.16-.09-.09-.25.07-.16.16Z"/>
  <path class="st3" d="M57.97,24.68c.27.03.44-.08.52-.34-.11-.02-.22,0-.32.07-.1.07-.17.16-.2.28Z"/>
  <path class="st3" d="M38.41,24.5c-.23.37-.22.73.05,1.07l.23.13h.06c.04-.53.02-1.04-.34-1.2Z"/>
  <path class="st3" d="M55.76,24.84c.11.02.22,0,.32-.07.1-.06.16-.16.19-.27-.27.02-.6-.02-.51.34Z"/>
  <path class="st3" d="M57.47,24.68c0,.09.13.18.16,0s-.13-.2-.16,0Z"/>
  <path class="st3" d="M62.45,25.7c.04.05.26-.07.17-.17-.09-.09-.26.09-.17.17Z"/>
  <path class="st3" d="M39.45,25.89s-.13.02-.18.07l.17.06s.05-.08.02-.13Z"/>
  <path class="st3" d="M40.65,26.05c-.13.05-.34.02-.34.18.15-.04.34,0,.34-.18Z"/>
  <path class="st3" d="M56.26,26.39c.14-.04.34,0,.34-.16s-.34,0-.34.16Z"/>
  <path class="st3" d="M54.89,27.08c0,.11.15.2.18,0s-.15-.18-.18,0Z"/>
  <path class="st3" d="M57.63,28.3c.05.04.27-.09.18-.18-.09-.09-.27.09-.18.18Z"/>
  <path class="st3" d="M54.04,28.3c-.02.09-.04.2-.18.17v.34c.43.27.51-.58.18-.51Z"/>
  <path class="st3" d="M58.16,28.99s.25-.09.16-.18c-.09-.09-.26.09-.16.18Z"/>
  <path class="st3" d="M53.7,29.16c0-.09-.15-.2-.18,0-.04.2.15.2.18,0Z"/>
  <path class="st3" d="M58.66,29.51c.03.08.08.13.17.13.08,0,.14-.04.17-.13-.18.02-.25-.26-.34,0Z"/>
  <path class="st3" d="M48.19,32.43s-.25.09-.16.18c.09.09.26-.09.16-.18Z"/>
  <path class="st3" d="M47.34,32.96c.05.04.25-.09.16-.18-.09-.09-.26.09-.16.18Z"/>
  <path class="st3" d="M47.68,33.13c0,.09.15.2.17,0,.02-.2-.13-.2-.17,0Z"/>
  <path class="st3" d="M47.34,34.67c-.06-.04-.27.09-.18.18.09.09.27-.09.18-.18Z"/>
  <path class="st3" d="M46.31,36.05c.13-.04.34,0,.34-.16s-.34,0-.34.16Z"/>
  <path class="st3" d="M49.56,36.93c-.42.56.58-.42,0,0Z"/>
  <path class="st3" d="M45.1,38.82c.41-.56,1.03-.93,1.71-1.2-.02-.32-.11-.58-.34-.69-.4.66-.95,1.13-1.66,1.42-.06.17-.1.35-.14.53.14-.07.28-.08.43-.05Z"/>
  <path class="st3" d="M46.13,38.29s-.25.09-.16.18c.09.09.26-.09.16-.18Z"/>
  <path class="st3" d="M49.74,39.51c.05.04.25-.09.18-.18-.07-.09-.27.09-.18.18Z"/>
  <path class="st3" d="M46.13,41.24c.06.04.27-.09.18-.18-.09-.09-.27.09-.18.18Z"/>
  <path class="st3" d="M50.08,41.24c.06.04.26-.09.18-.18-.07-.09-.27.09-.18.18Z"/>
  <path class="st3" d="M45.97,42.09c.04.05.26-.09.16-.17-.09-.07-.25.07-.16.17Z"/>
  <path class="st3" d="M48.19,43.64c.06.05.27-.07.18-.17-.09-.09-.25.07-.18.17Z"/>
  <path class="st3" d="M49.06,43.98c.13-.04.34,0,.34-.16s-.34,0-.34.16Z"/>
  <path class="st3" d="M49.56,44.17c.05.04.27-.09.18-.18-.09-.09-.26.09-.18.18Z"/>
  <path class="st3" d="M46.66,47.95c.04.06.25-.07.16-.16s-.25.07-.16.16Z"/>
  <path class="st3" d="M45.97,48.13c-.05-.05-.27.07-.18.17.09.09.27-.07.18-.17Z"/>
  <path class="st3" d="M47.34,48.3c-.06-.04-.27.09-.18.18.09.09.27-.09.18-.18Z"/>
  <path class="st3" d="M46.31,48.82c-.31-.16-.54-.58-.69,0,.11.04.65.42.69,0Z"/>
  <path class="st3" d="M51.64,48.48c-.05-.06-.27.07-.18.16.09.09.25-.07.18-.16Z"/>
  <path class="st3" d="M46.47,49.17c.06.04.27-.09.18-.18-.09-.09-.27.09-.18.18Z"/>
  <path class="st3" d="M44.07,49.17h-.05c-.13.13-.23.28-.34.4l.23.11c-.02-.19.04-.36.16-.51Z"/>
  <path class="st3" d="M47.16,49.33s-.26.09-.16.18c.09.09.25-.09.16-.18Z"/>
  <path class="st3" d="M48.03,49.52c-.05-.06-.25.07-.18.16.07.09.27-.07.18-.16Z"/>
  <path class="st3" d="M52.32,50.19c-.25-.07-.43-.23-.69-.33-.04.49.58.95.69.33Z"/>
  <path class="st3" d="M44.26,50.19c-.02.11-.04.22-.18.18v.34c.43.28.51-.58.18-.53Z"/>
  <path class="st3" d="M45.45,50.19s-.26.09-.17.18c.09.09.26-.09.17-.18Z"/>
  <path class="st3" d="M53.01,50.19c-.06-.04-.27.09-.18.18s.27-.09.18-.18Z"/>
  <path class="st3" d="M42.32,51.28l-.16.38c.12-.09.24-.18.38-.26l-.22-.13Z"/>
  <path class="st3" d="M46.31,51.06h-.34v.34h.34v-.34Z"/>
  <path class="st3" d="M53.35,51.57c-.06-.04-.27.09-.18.18.09.09.27-.09.18-.18Z"/>
  <path class="st3" d="M42.7,51.92c.05.05.27-.07.18-.17-.09-.09-.27.07-.18.17Z"/>
  <path class="st3" d="M52.48,51.92c.06.05.27-.07.18-.17-.09-.09-.27.07-.18.17Z"/>
  <path class="st3" d="M49.22,52.61c0,.09.15.2.18,0,.04-.2-.15-.2-.18,0Z"/>
  <path class="st3" d="M50.43,52.61c.13-.04.34,0,.34-.17s-.34,0-.34.17Z"/>
  <path class="st3" d="M47.85,52.95v.34c.18,0,.21.15.34.18-.02-.27.04-.6-.34-.53Z"/>
  <path class="st3" d="M52.48,53.14c.06.04.27-.09.18-.18s-.27.09-.18.18Z"/>
  <path class="st3" d="M45.63,53.48s.26-.09.16-.18c-.09-.09-.25.09-.16.18Z"/>
  <path class="st3" d="M46.13,53.48c.06.04.27-.09.18-.18-.09-.09-.27.09-.18.18Z"/>
  <path class="st3" d="M43.22,54.5c.04.05.26-.07.17-.17-.09-.09-.26.09-.17.17Z"/>
  <path class="st3" d="M44.07,54.84c.06.06.27-.07.18-.16-.09-.09-.27.09-.18.16Z"/>
  <path class="st3" d="M53.7,54.84c.21.22.47.35.78.39.01-.16.02-.32.02-.47-.31-.11-.69-.11-.79.09Z"/>
  <path class="st3" d="M41.66,55.38v.05s.02-.04.02-.05h-.02Z"/>
  <path class="st3" d="M54.38,55.54h-.34v.34h.34v-.34Z"/>
  <path class="st3" d="M48.19,55.88c-.38.44-.16.86-.34,1.22.48.07.54-1.18.34-1.22Z"/>
  <path class="st3" d="M54.04,56.41c-.05-.06-.27.07-.18.16.09.09.27-.07.18-.16Z"/>
  <path class="st3" d="M47.68,56.76c-.2.02-.27-.26-.34,0,.03.08.08.13.17.13.09,0,.15-.04.17-.13Z"/>
  <path class="st3" d="M53.86,56.92c.04.22.2.11.34,0,.14-.11-.29-.21-.34,0Z"/>
  <path class="st3" d="M45.63,58.65c.04.06.26-.09.16-.16-.09-.07-.25.07-.16.16Z"/>
  <path class="st3" d="M48.37,59.85c-.76.13-.36-.89-.86-1.04.14.49-.23.45-.16.87.7.02.03.11,0,.35-.04.23.34,0,.34.16-.08.22-.04.41.13.56h.45c.18-.49-.54-.49.11-.91Z"/>
  <path class="st3" d="M48.88,60.72h.51c-.2-.04-.38-.31-.51,0Z"/>
  <path class="st3" d="M49.56,60.19c.05.06.27-.07.18-.16-.09-.09-.26.07-.18.16Z"/>
  <path class="st3" d="M46.13,60.38c.06.04.27-.09.18-.18-.09-.09-.27.09-.18.18Z"/>
  <path class="st3" d="M47,60.38s.25-.09.16-.18c-.09-.09-.26.09-.16.18Z"/>
  <path class="st3" d="M47.34,60.54c.05.05.25-.07.16-.17-.09-.09-.26.07-.16.17Z"/>
  <path class="st3" d="M51.64,8.64s.02-.05.02-.09h-.22c.06.05.13.08.2.09Z"/>
  <path class="st3" d="M45.84,8.55c.2.15.43.38.47.09-.07-.01-.13-.04-.18-.09h-.29Z"/>
  <path class="st3" d="M55.41,8.82c.21.85.81.26,0,0Z"/>
  <path class="st3" d="M48.71,10.71c-.34.18-.34.9,0,.51-.11,0-.2-.02-.18-.16.29.05.47-.24.18-.35Z"/>
  <path class="st3" d="M39.61,11.75c.2-.04.4-.31.53,0-.11,0-.2.13,0,.16.2.04.02-.66.34-.69.03.15.14.2.34.18.04-.45-.36-.45-.68-.53.07.45-.99,1.13-.53.88Z"/>
  <path class="st3" d="M54.89,11.22c.53.47-.47-.53,0,0Z"/>
  <path class="st3" d="M47.85,11.4c-.47.53.52-.47,0,0Z"/>
  <path class="st3" d="M45.45,12.95c-.11.23-.65.02-.69.34h.69c-.07-.42.32-.38.18-.85-.65-.05-.51-.76-.68-.87-.18-.11-.15.2-.34.18-.02.47.29.34,0,.69.21.24.83.07.85.51Z"/>
  <path class="st3" d="M47.16,12.95c.52.47-.47-.53,0,0Z"/>
  <path class="st3" d="M58.49,14.33c.26-.09.43-.27.51-.53-.19.02-.35-.04-.51-.16-.01.19.04.36.17.51-.18,0-.44.09-.17.18Z"/>
  <path class="st3" d="M53.17,14.15c-.04.12-.1.23-.16.34.02.05.29-.04.34,0,.65.58-.02-.34-.18-.34Z"/>
  <path class="st3" d="M60.38,15.19c.36-.04.34-.46.52-.69h-.52c0,.19.06.37.18.53-.36-.09-.36.67-.18.17Z"/>
  <path class="st3" d="M60.03,15.37c-.27-.02-.13-.44-.51-.35-.38.09.56.66.51.35Z"/>
  <path class="st3" d="M43.91,15.53c.32.31-.22.51.16.88-.18-.02-.43.07-.16.16.27.09.45-.45.51-.85.05-.4-.99-.55-1.37-.18-.02.44.27.55.52.69.02-.33.11-.58.34-.69Z"/>
  <path class="st3" d="M52.83,15.53c-.42.31-.27.45.18.18.61.07.23-.33-.18-.18Z"/>
  <path class="st3" d="M60.56,17.09c.07-.54-.22-.71-.53-.87-.05.29.26.44,0,.53-.25.09-.25-.26-.34,0-.09.26.2.13.18.34h.69Z"/>
  <path class="st3" d="M63.82,17.09c.42.02.42-.38.67-.53-.42-.02-.52.28-.67.53Z"/>
  <path class="st3" d="M53.86,17.26c-.26.04-.64-.06-.69.16.4.06.11.15-.07.22s.02.09.02.13h.05c.13-.28.85.05.69-.51Z"/>
  <path class="st3" d="M59,18.64l-.51-.53c.67-.26,1.19.51,1.38.18-.54-.66-1.12-.27-1.9-.53.04.31-.16.42-.51.34-.15.6.18.73.34,1.04.67.11.89-.26,1.19-.51Z"/>
  <path class="st3" d="M54.2,18.64c-.11-.09-.53-.71-.69-.18.43-.22.54.69.69.18Z"/>
  <path class="st3" d="M64.17,20.19c-.36-.04-.16-.64-.53-.69.06.25.22,1.26.53.69Z"/>
  <path class="st3" d="M58.66,20.03c-.47.53.52-.47,0,0Z"/>
  <path class="st3" d="M59.18,20.54c.34.05.34-.24.51-.35-.04.51.65.58.18,1.04.54.07.48-.44.69-.69-.71.16-1.18-1.17-1.38,0Z"/>
  <path class="st3" d="M60.72,20.54c.11.18.86.94.52.53s.15-.73.16-1.22c-.67-.22-.43.47-.68.69Z"/>
  <path class="st3" d="M63.48,20.19c.51.47-.47-.53,0,0Z"/>
  <path class="st3" d="M61.4,20.72c.53.45-.47-.53,0,0Z"/>
  <path class="st3" d="M38.41,22.43c.15-.11.45-1.02-.16-.85.25.4-.06.74.16.85Z"/>
  <path class="st3" d="M62.09,22.43c.45-.45-.27-.13-.16-.69h-.34c0,.18-.15.22-.18.34.54-.18.44.28.69.35Z"/>
  <path class="st3" d="M63.48,22.95c.29-.11.47-.09.58-.02s.09-.2.15-.29c-.11-.1-.19-.23-.22-.39-.05.35-.47.33-.51.69Z"/>
  <path class="st3" d="M57.13,22.95c.2-.18.04-.13-.18,0-.21.13-.02.17.18,0Z"/>
  <path class="st3" d="M62.79,23.65c.29-.07.43.26.51,0s-.2-.04-.16-.18c.2-.07.37-.18.51-.34-.4.05-.74.18-.85.53Z"/>
  <path class="st3" d="M61.93,24.16c.52-.13.32.47.86.34-.02-.33-1.01-.96-.86-.34Z"/>
  <path class="st3" d="M55.23,24.84c-.27.13.04.84-.51.69,0-.09-.15-.2-.18,0,.56.33,1.41-.27,1.72.51-.2-.53-.38-1.11-1.03-1.2Z"/>
  <path class="st3" d="M40.3,25.19c-.23.15-.02.18.18,0,.2-.18.03-.13-.18,0Z"/>
  <path class="st3" d="M56.6,26.57c-.02.39.57,1,.68.69-.43-.02-.23-.67-.68-.69Z"/>
  <path class="st3" d="M47.68,31.74c.02.26-.51.2-.18.35.32.15.4-.88.18-.35Z"/>
  <path class="st3" d="M47.34,37.61c-.47.51.52-.47,0,0Z"/>
  <path class="st3" d="M49.56,38.47c.52.47-.45-.53,0,0Z"/>
  <path class="st3" d="M48.53,47.95c.87-.21.27-.8,0,0Z"/>
  <path class="st3" d="M48.03,50.19c-.68.23-.41-.49-.86-.51-.38.51.59.82.86,1.2.27.38-.25.27,0,.34.26.07.15-.2.34-.16.13-.53-.59-.22-.34-.88Z"/>
  <path class="st3" d="M42.02,52.1c-.04.14-.07.29-.09.44.2-.15.31-.29.09-.44Z"/>
  <path class="st3" d="M42.02,54.17c.53.45-.47-.53,0,0Z"/>
  <path class="st3" d="M47.51,58.48c-.23.49.32-.18.18-.35-.14-.16-.16.31-.18.35Z"/>
  <path class="st3" d="M45.1,58.81c.43-.22.41.82.68.18-.38-.07-.41-.9-.68-.18Z"/>
  <path class="st3" d="M47,60.54c-.04.06-.04.11-.02.18h.18c-.05-.06-.1-.13-.16-.18Z"/>
</svg>